/* XPM */
static char *result[] = {
/* columns rows colors chars-per-pixel */
"60 60 172 2 ",
"   c #010001",
".  c #0C0902",
"X  c #02030B",
"o  c #140D01",
"O  c #1B0902",
"+  c #141001",
"@  c #1E1908",
"#  c #1A1702",
"$  c #030313",
"%  c #070917",
"&  c #0C0B13",
"*  c #0B0C1D",
"=  c #110917",
"-  c #1F0718",
";  c #15151C",
":  c #1C1C1E",
">  c #17161C",
",  c #270905",
"<  c #3A0E0B",
"1  c #221B03",
"2  c #231106",
"3  c #291910",
"4  c #211E1E",
"5  c #1F211F",
"6  c #2A2304",
"7  c #2B2A02",
"8  c #312A06",
"9  c #3F3707",
"0  c #323004",
"q  c #28211F",
"w  c #22211F",
"e  c #36321E",
"r  c #353017",
"t  c #1D1E22",
"y  c #1C1E2C",
"u  c #17192E",
"i  c #191C32",
"p  c #351A25",
"a  c #1F2027",
"s  c #242322",
"d  c #2D2924",
"f  c #312F26",
"g  c #343224",
"h  c #333128",
"j  c #3A372A",
"k  c #3D3C2B",
"l  c #262830",
"z  c #2A2B33",
"x  c #2A2B3D",
"c  c #21243A",
"v  c #302F38",
"b  c #413D07",
"n  c #512A11",
"m  c #423D2C",
"M  c #5A3630",
"N  c #6E3F20",
"B  c #4B430B",
"V  c #51460C",
"C  c #504715",
"Z  c #5D5213",
"A  c #79441F",
"S  c #6B5F18",
"D  c #645916",
"F  c #6D641D",
"G  c #67611A",
"H  c #72651E",
"J  c #756C1F",
"K  c #46442E",
"L  c #4D4430",
"P  c #534D33",
"I  c #5B5535",
"U  c #5E5E38",
"Y  c #7C4726",
"T  c #695F2D",
"R  c #625937",
"E  c #766722",
"W  c #746A22",
"Q  c #786B25",
"!  c #7B6E29",
"~  c #7B7128",
"^  c #69673C",
"/  c #736B3F",
"(  c #756B3A",
")  c #2B2E43",
"_  c #303940",
"`  c #3A3C4C",
"'  c #373A51",
"]  c #403F44",
"[  c #3F4148",
"{  c #3D4E58",
"}  c #484644",
"|  c #424455",
" . c #474A53",
".. c #4A4D53",
"X. c #474859",
"o. c #474A5D",
"O. c #766D41",
"+. c #7B6E42",
"@. c #7E7244",
"#. c #7E7C44",
"$. c #4D5064",
"%. c #555665",
"&. c #545668",
"*. c #5C5B60",
"=. c #5C5F71",
"-. c #5E6871",
";. c #636365",
":. c #6C6D7E",
">. c #636577",
",. c #627078",
"<. c #767577",
"1. c #8D5531",
"2. c #887F38",
"3. c #817644",
"4. c #847A46",
"5. c #857C4B",
"6. c #A67254",
"7. c #998C3C",
"8. c #938635",
"9. c #9A943D",
"0. c #A1913D",
"q. c #92864B",
"w. c #95894C",
"e. c #988C4D",
"r. c #9E9240",
"t. c #9F9750",
"y. c #AD9E4B",
"u. c #A89944",
"i. c #A19451",
"p. c #A59A54",
"a. c #AB9C55",
"s. c #ABA34B",
"d. c #B4AA4D",
"f. c #ADA356",
"g. c #B8A650",
"h. c #BBAC53",
"j. c #B5A558",
"k. c #B4AB5B",
"l. c #BCAC5B",
"z. c #B2A257",
"x. c #BBB25C",
"c. c #C68257",
"v. c #C0B34D",
"b. c #C3B55F",
"n. c #CEBE5E",
"m. c #CB8B61",
"M. c #D48F63",
"N. c #D59466",
"B. c #D69B69",
"V. c #D7AB6F",
"C. c #CBBD61",
"Z. c #C6BA60",
"A. c #D3BF64",
"S. c #C7C05D",
"D. c #D3C25F",
"F. c #CDC162",
"G. c #D5C265",
"H. c #D4CB66",
"J. c #D5CD68",
"K. c #D5D167",
"L. c #D5D269",
"P. c #6F7B83",
"I. c #7A818C",
"U. c #838597",
"Y. c #888A99",
"T. c #8D9196",
"R. c #91929D",
"E. c #939297",
"W. c #9C9EAC",
"Q. c #9698A4",
"!. c #A8AAB6",
"~. c None",
/* pixels */
"~.~.~.~.~.~.~.~.~.~.~.~.~.~.~.~.~.~.~.~.~.~.~.~.~.~.~.~.~.~.~.~.~.~.~.~.~.~.~.~.~.~.~.~.~.~.~.~.~.~.~.~.~.~.~.~.~.~.~.~.",
"~.~.~.~.~.~.~.~.~.~.~.~.~.~.~.~.~.~.~.~.~.~.~.~.~.~.~.~.~.~.~.~.~.~.~.~.~.~.~.~.~.~.~.~.~.~.~.~.~.~.~.~.~.~.~.~.~.~.~.~.",
"~.~.~.~.~.~.~.~.~.~.~.~.~.~.~.~.~.~.~.~.~.~.~.~.~.~.~.~.~.~.~.~.~.~.~.~.~.~.~.~.~.~.~.~.~.~.~.~.~.~.~.~.~.~.~.~.~.~.~.~.",
"~.~.~.~.~.~.~.~.~.~.~.~.~.~.~.~.~.~.~.~.~.~.~.~.~.~.~.~.~.~.~.~.~.~.~.~.~.~.~.~.~.~.~.~.~.~.~.~.~.~.~.~.~.~.~.~.~.~.~.~.",
"~.~.~.~.~.~.~.~.~.~.~.~.~.~.~.~.~.~.~.~.~.~.~.~.~.~.~.~.~.~.~.~.~.~.~.~.~.~.~.~.~.~.~.~.~.~.~.~.~.~.~.~.~.~.~.~.~.~.~.~.",
"~.~.~.~.~.~.~.~.~.~.~.~.~.~.~.~.~.~.~.~.~.~.~.~.~.~.~.~.~.~.~.~.~.~.~.~.~.~.~.~.~.~.~.~.~.~.~.~.~.~.~.~.~.~.~.~.~.~.~.~.",
"~.~.~.~.~.~.~.~.~.~.~.~.~.~.~.~.~.~.~.~.~.~.~.~.~.~.~.~.~.~.~.~.~.~.~.~.~.~.~.~.~.~.~.~.~.~.~.~.~.~.~.~.~.~.~.~.~.~.~.~.",
"~.~.~.~.~.~.~.~.~.~.~.~.~.~.~.~.~.~.~.~.~.~.~.~.~.~.~.~.~.~.~.~.~.~.~.~.~.~.~.~.~.~.~.~.~.~.~.~.~.~.~.~.~.~.~.~.~.~.~.~.",
"~.~.~.~.~.~.~.~.~.~.~.~.~.~.~.~.~.~.~.~.~.~.~.~.~.~.~.~.~.~.~.~.~.~.~.~.~.~.~.~.~.~.~.~.~.~.~.~.~.~.~.~.~.~.~.~.~.~.~.~.",
"~.~.~.~.~.~.~.~.~.~.~.~.~.~.~.~.~.~.~.~.~.~.~.~.~.~.~.~.~.~.~.~.~.~.~.~.~.~.~.~.~.~.~.~.~.~.~.~.~.~.~.~.~.~.~.~.~.~.~.~.",
"~.~.~.~.~.~.~.~.~.~.~.~.~.~.~.~.~.~.~.~.~.~.~.~.~.~.~.~.~.~.~.~.~.~.~.~.~.~.~.~.~.~.~.~.~.~.~.~.~.~.~.~.~.~.~.~.~.~.~.~.",
"~.~.~.~.~.~.~.~.~.~.~.~.~.~.~.~.~.~.~.~.~.~.~.~.~.~.~.~.~.~.~.~.~.~.~.~.~.~.~.~.~.~.~.~.~.~.~.~.~.~.~.~.~.~.~.~.~.~.~.~.",
"~.~.~.~.~.~.~.~.~.~.~.~.~.~.~.~.~.~.~.~.~.~.~.~.~.~.~.~.~.~.~.~.~.~.~.~.~.~.~.~.~.~.~.~.~.~.~.~.~.~.~.~.~.~.~.~.~.~.~.~.",
"~.~.~.~.~.~.~.~.~.~.~.~.~.~.~.~.~.~.~.~.~.~.~.~.~.~.~.~.~.~.~.~.~.~.~.~.~.~.~.~.~.~.~.~.~.~.~.~.~.~.~.~.~.~.~.~.~.~.~.~.",
"~.~.~.~.~.~.~.~.~.~.~.~.~.~.~.~.~.~.~.~.~.~.~.~.~.~.~.~.~.W.) w r r g t ' ~.~.~.~.~.~.~.~.~.~.~.~.~.~.~.~.~.~.~.~.~.~.~.",
"~.~.~.~.~.~.~.~.~.~.~.~.~.~.~.~.~.~.~.~.~.~.~.~.~.~.~.~.i o F h.D.D.A.s.D o u ~.~.~.~.~.~.~.~.~.~.~.~.~.~.~.~.~.~.~.~.~.",
"~.~.~.~.~.~.~.~.~.~.~.~.~.~.~.~.~.~.~.~.~.~.~.} ..~.~.  E L.L.J.G.G.G.L.L.L.Q   ~.~.~.~.~.~.~.~.~.~.~.~.~.~.~.~.~.~.~.~.",
"~.~.~.~.~.~.~.~.~.~.~.~.~.~.~.~.~.~.~.~.~.~.~.z o 8 1 h.L.J.G.A.G.G.G.G.G.G.L.r.  ~.~.~.~.~.~.~.~.~.~.~.~.~.~.~.~.~.~.~.",
"~.~.~.~.~.~.~.~.~.~.~.~.~.~.~.~.~.~.~.~.~.~.~.R.o C.L.J.A.G.G.G.G.A.G.G.G.G.G.L.F y ~.~.~.~.~.~.~.~.~.~.~.~.~.~.~.~.~.~.",
"~.~.~.~.~.~.~.~.~.~.~.~.~.~.~.~.~.~.~.~.~.~.~.~.>.1 H.G.G.A.G.G.G.G.G.G.G.G.G.G.J.o R.~.~.~.~.~.~.~.~.~.~.~.~.~.~.~.~.~.",
"~.~.~.~.~.~.~.~.~.~.~.~.~.~.~.~.~.~.~.~.~.~.~.~.Q.1 J.G.G.G.G.G.G.G.G.G.A.H.L.H.L.F X.~.~.~.~.~.~.~.~.~.~.~.~.~.~.~.~.~.",
"~.~.~.~.~.~.~.~.~.~.~.~.~.~.~.~.~.~.~.~.~.~.~.~.o.H K.G.G.G.G.G.G.G.G.A.H.a.I k.K.s.t ~.~.~.~.~.~.~.~.~.~.~.~.~.~.~.~.~.",
"~.~.~.~.~.~.~.~.~.~.~.~.~.~.~.~.~.~.~.~.~.~.~.~.z 0.J.A.G.G.A.G.G.G.G.G.J.K   R L.t.  T.~.~.~.~.~.~.~.~.~.~.~.~.~.~.~.~.",
"~.~.~.~.~.~.~.~.~.~.~.~.~.~.~.~.~.~.~.~.~.~.~.~.t y.J.G.G.G.G.G.G.G.G.A.H.e.j f.L.h M 3 { I.,...~.~.~.~.~.~.~.~.~.~.~.~.",
"~.~.~.~.~.~.~.~.~.~.~.~.~.~.~.~.~.~.~.~.~.~.~.~.s u.J.G.G.G.G.G.A.G.G.G.A.J.L.L./ * B.m.A n A < ..~.~.~.~.~.~.~.~.~.~.~.",
"~.~.~.~.~.~.~.~.~.~.~.~.~.~.~.~.~.~.~.~.~.~.~.~.{ W L.G.G.G.G.G.G.G.G.G.G.G.G.K $ 6.N.N.N.B.V.n ,.~.~.~.~.~.~.~.~.~.~.~.",
"~.~.~.~.~.~.~.~.~.~.~.~.~.~.~.~.~.~.~.~.~.~.~.~.P.1 L.G.G.G.G.G.G.G.G.A.G.K.^ - B.B.M.N.B.B.Y   ~.~.~.~.~.~.~.~.~.~.~.~.",
"~.~.~.~.~.~.~.~.~.~.~.~.~.~.~.~.~.~.~.~.~.~.~.~.~.* ~ L.G.G.G.A.G.G.G.G.G.L.U p N.M.N.c.1.2 X ~.~.~.~.~.~.~.~.~.~.~.~.~.",
"~.~.~.~.~.~.~.~.~.~.~.~.~.~.~.~.~.~.~.~.~.~.~.~.~.~.  8.L.J.A.G.G.G.G.G.G.H.J.k   2 O q _ P.~.~.~.~.~.~.~.~.~.~.~.~.~.~.",
"~.~.~.~.~.~.~.~.~.~.~.~.~.~.~.~.~.~.~.~.~.~.~.~.~.~.~.x T C.J.A.G.A.G.G.G.G.n.g ~.~.~.~.~.~.~.~.~.~.~.~.~.~.~.~.~.~.~.~.",
"~.~.~.~.~.~.~.~.~.~.~.~.*.~.~.~.~.~.~.~.~.~.~.~.~.~.~.$.  $ z.J.G.G.G.G.G.H.l.  ~.~.~.~.~.~.~.~.~.~.~.~.~.~.~.~.~.~.~.~.",
"~.~.~.~.~.~.~.~.~.~.~.;.  v ~.~.~.~.~.~.~.U.` s + 8 V ( 5.O.x.G.G.G.G.G.G.A.L.8.X ~.~.~.~.~.~.~.~.~.~.~.~.~.~.~.~.~.~.~.",
"~.~.~.~.~.~.~.~.~.~.~.X.C J X ~.~.~.~.| & 6 H h.G.J.K.K.L.K.H.J.K.J.G.G.G.G.G.L.F X ~.~.~.~.~.~.~.~.~.~.~.~.~.~.~.~.~.~.",
"~.~.~.~.~.~.~.~.~.~.~.<.  k.v.o y y # Z h.L.L.J.H.G.G.G.H.J.G.p.4.a.H.L.G.G.G.G.L.Z * ~.~.~.~.~.~.~.~.~.~.~.~.~.~.~.~.~.",
"~.~.~.~.~.~.~.~.~.~.~.E.. ; p.L.u.7.G.L.L.J.G.G.G.H.K.K.C.R w s s s : 3.K.H.G.G.J.L.8 &.~.~.~.~.~.~.~.~.~.~.~.~.~.~.~.~.",
"~.~.~.~.~.~.~.~.~.~.~.W.B f.$ L H.K.H.l.q.z.F.J.G.l.q.K % f q.A.H.G.q.$ P K.G.G.A.J.x.. ~.~.~.~.~.~.~.~.~.~.~.~.~.~.~.~.",
"~.~.~.~.~.~.~.~.~.~.~.~.= g.F.d e.K.K.w.$ j f j d d f P a.L.K.H.G.H.L.C.$ 4.K.G.G.G.L.0 P.~.~.~.~.~.~.~.~.~.~.~.~.~.~.~.",
"~.~.~.~.~.~.~.~.~.~.~.~.-.b L.L.G.G.H.b.; t.A.p.l.H.H.L.J.G.A.G.G.G.A.L.4.> H.G.G.G.K.F ] ~.~.~.~.~.~.~.~.~.~.~.~.~.~.~.",
"~.~.~.~.~.~.~.~.~.~.~.~.~.. G.G.G.G.G.K.U ; +.3./ q.K.G.G.G.G.G.G.G.G.H.C.5 p.H.G.G.J.7.[ ~.~.~.~.~.~.~.~.~.~.~.~.~.~.~.",
"~.~.~.~.~.~.~.~.~.~.~.~.~.z 7.K.G.G.G.J.l.$ m ^ d O.K.G.G.G.G.G.G.G.G.G.H.s q.K.G.G.J.u.] ~.~.~.~.~.~.~.~.~.~.~.~.~.~.~.",
"~.~.~.~.~.~.~.~.~.~.~.~.~.&.b L.G.G.G.G.K.I m J.K.G.A.G.G.G.G.G.G.G.G.H.k.> l.H.G.G.H.8.[ ~.~.~.~.~.~.~.~.~.~.~.~.~.~.~.",
"~.~.~.~.~.~.~.~.~.~.~.~.~.~.+ F.G.G.G.G.H.H.4 $ I s / K.G.G.G.G.G.G.H.K.P g K.G.G.G.L.W [ ~.~.~.~.~.~.~.~.~.~.~.~.~.~.~.",
"~.~.~.~.~.~.~.~.~.~.~.~.~.~.x F L.G.G.G.A.K.x.$ f x.G.J.G.G.G.G.G.K.L./ $ x.J.G.G.G.L.7 P.~.~.~.~.~.~.~.~.~.~.~.~.~.~.~.",
"~.~.~.~.~.~.~.~.~.~.~.~.~.~.~.  n.K.A.G.G.A.L.x.d m q.b.H.K.K.J.G.t.h $ f.K.G.G.A.L.r.X ~.~.~.~.~.~.~.~.~.~.~.~.~.~.~.~.",
"~.~.~.~.~.~.~.~.~.~.~.~.~.~.~.%.1 L.J.G.G.G.A.K.J.@.s ; h K K m : ; I C.L.G.A.G.L.d.  Q.~.~.~.~.~.~.~.~.~.~.~.~.~.~.~.~.",
"~.~.~.~.~.~.~.~.~.~.~.~.~.~.~.~.c + G.L.J.G.G.G.H.L.H.z.q.3.@.3.t.C.J.J.G.H.L.J.H   Y.~.~.~.~.~.~.~.~.~.~.~.~.~.~.~.~.~.",
"~.~.~.~.~.~.~.~.~.~.~.~.~.~.~.~.~.&.  D h.J.K.K.K.K.J.L.L.L.L.L.L.L.L.L.H.g.S   i ~.~.~.~.~.~.~.~.~.~.~.~.~.~.~.~.~.~.~.",
"~.~.~.~.~.~.~.~.~.~.~.~.~.~.~.~.~.~.~.` X 6 B Z F E ! ! ! ~ ! ! ! E Z B 6 & | !.~.~.~.~.~.~.~.~.~.~.~.~.~.~.~.~.~.~.~.~.",
"~.~.~.~.~.~.~.~.~.~.~.~.~.~.~.~.~.~.~.~.~.!.U.-.| [ ' ` ` ` ` ` ` ` =.U.!.~.~.~.~.~.~.~.~.~.~.~.~.~.~.~.~.~.~.~.~.~.~.~.",
"~.~.~.~.~.~.~.~.~.~.~.~.~.~.~.~.~.~.~.~.~.~.~.~.~.~.~.~.~.~.~.~.~.~.~.~.~.~.~.~.~.~.~.~.~.~.~.~.~.~.~.~.~.~.~.~.~.~.~.~.",
"~.~.~.~.~.~.~.~.~.~.~.~.~.~.~.~.~.~.~.~.~.~.~.~.~.~.~.~.~.~.~.~.~.~.~.~.~.~.~.~.~.~.~.~.~.~.~.~.~.~.~.~.~.~.~.~.~.~.~.~.",
"~.~.~.~.~.~.~.~.~.~.~.~.~.~.~.~.~.~.~.~.~.~.~.~.~.~.~.~.~.~.~.~.~.~.~.~.~.~.~.~.~.~.~.~.~.~.~.~.~.~.~.~.~.~.~.~.~.~.~.~.",
"~.~.~.~.~.~.~.~.~.~.~.~.~.~.~.~.~.~.~.~.~.~.~.~.~.~.~.~.~.~.~.~.~.~.~.~.~.~.~.~.~.~.~.~.~.~.~.~.~.~.~.~.~.~.~.~.~.~.~.~.",
"~.~.~.~.~.~.~.~.~.~.~.~.~.~.~.~.~.~.~.~.~.~.~.~.~.~.~.~.~.~.~.~.~.~.~.~.~.~.~.~.~.~.~.~.~.~.~.~.~.~.~.~.~.~.~.~.~.~.~.~.",
"~.~.~.~.~.~.~.~.~.~.~.~.~.~.~.~.~.~.~.~.~.~.~.~.~.~.~.~.~.~.~.~.~.~.~.~.~.~.~.~.~.~.~.~.~.~.~.~.~.~.~.~.~.~.~.~.~.~.~.~.",
"~.~.~.~.~.~.~.~.~.~.~.~.~.~.~.~.~.~.~.~.~.~.~.~.~.~.~.~.~.~.~.~.~.~.~.~.~.~.~.~.~.~.~.~.~.~.~.~.~.~.~.~.~.~.~.~.~.~.~.~.",
"~.~.~.~.~.~.~.~.~.~.~.~.~.~.~.~.~.~.~.~.~.~.~.~.~.~.~.~.~.~.~.~.~.~.~.~.~.~.~.~.~.~.~.~.~.~.~.~.~.~.~.~.~.~.~.~.~.~.~.~.",
"~.~.~.~.~.~.~.~.~.~.~.~.~.~.~.~.~.~.~.~.~.~.~.~.~.~.~.~.~.~.~.~.~.~.~.~.~.~.~.~.~.~.~.~.~.~.~.~.~.~.~.~.~.~.~.~.~.~.~.~.",
"~.~.~.~.~.~.~.~.~.~.~.~.~.~.~.~.~.~.~.~.~.~.~.~.~.~.~.~.~.~.~.~.~.~.~.~.~.~.~.~.~.~.~.~.~.~.~.~.~.~.~.~.~.~.~.~.~.~.~.~.",
"~.~.~.~.~.~.~.~.~.~.~.~.~.~.~.~.~.~.~.~.~.~.~.~.~.~.~.~.~.~.~.~.~.~.~.~.~.~.~.~.~.~.~.~.~.~.~.~.~.~.~.~.~.~.~.~.~.~.~.~."
};
