/* XPM */
static char *result[] = {
/* columns rows colors chars-per-pixel */
"60 60 216 2 ",
"   c #010000",
".  c #0B0301",
"X  c #0C0904",
"o  c #0D0C0A",
"O  c #0A090B",
"+  c #150200",
"@  c #180200",
"#  c #130C03",
"$  c #1B0D02",
"%  c #130E0A",
"&  c #1A0D0B",
"*  c #0E100D",
"=  c #1C1105",
"-  c #14120C",
";  c #1C140C",
":  c #1E1A0F",
">  c #191406",
",  c #141413",
"<  c #1C1611",
"1  c #1D1913",
"2  c #1A1C1C",
"3  c #2C0200",
"4  c #220000",
"5  c #370B00",
"6  c #22150C",
"7  c #29170B",
"8  c #241A0D",
"9  c #2B1B0E",
"0  c #201302",
"q  c #341D0C",
"w  c #361607",
"e  c #241B13",
"r  c #2D1F13",
"t  c #2D1E19",
"y  c #251A16",
"u  c #301F12",
"i  c #3A1910",
"p  c #2F200F",
"a  c #3E210A",
"s  c #38200B",
"d  c #2D2114",
"f  c #23211C",
"g  c #2E241A",
"h  c #2A2516",
"j  c #322315",
"k  c #3C2615",
"l  c #32251A",
"z  c #3A271A",
"x  c #342A1D",
"c  c #3A2C1C",
"v  c #3A2A15",
"b  c #3B311E",
"n  c #1F2022",
"m  c #242322",
"M  c #2A2626",
"N  c #2C2925",
"B  c #2C2D2C",
"V  c #23262A",
"C  c #352C22",
"Z  c #3A2D22",
"A  c #322A26",
"S  c #373122",
"D  c #3A3325",
"F  c #35332F",
"G  c #3C3228",
"H  c #2A3031",
"J  c #343232",
"K  c #3F3C36",
"L  c #3C3E3E",
"P  c #353839",
"I  c #560B00",
"U  c #451500",
"Y  c #471903",
"T  c #5E1500",
"R  c #561C01",
"E  c #661A01",
"W  c #781E00",
"Q  c #48240D",
"!  c #542100",
"~  c #52210B",
"^  c #5A2707",
"/  c #442613",
"(  c #44291A",
")  c #452715",
"_  c #5C2C12",
"`  c #583317",
"'  c #44341B",
"]  c #6E2E03",
"[  c #682905",
"{  c #772F03",
"}  c #66320C",
"|  c #7A390C",
" . c #773207",
".. c #622F12",
"X. c #643215",
"o. c #653A1C",
"O. c #6A3612",
"+. c #713414",
"@. c #7A3A13",
"#. c #773D18",
"$. c #443124",
"%. c #42392D",
"&. c #43362C",
"*. c #523422",
"=. c #5D3925",
"-. c #573927",
";. c #453B32",
":. c #423F39",
">. c #6B3D23",
",. c #653D29",
"<. c #753D28",
"1. c #744018",
"2. c #5E4028",
"3. c #45423F",
"4. c #4A4137",
"5. c #5B4432",
"6. c #5F433B",
"7. c #6C4124",
"8. c #6D432B",
"9. c #65422A",
"0. c #724228",
"q. c #7A462F",
"w. c #7E4C2E",
"e. c #704626",
"r. c #7E5029",
"t. c #644A3B",
"y. c #7A4833",
"u. c #373A41",
"i. c #433F40",
"p. c #4D4B4A",
"a. c #444344",
"s. c #514A46",
"d. c #584641",
"f. c #58534F",
"g. c #575348",
"h. c #40505F",
"j. c #565554",
"k. c #595553",
"l. c #5D5B5B",
"z. c #525558",
"x. c #654B41",
"c. c #735D47",
"v. c #6B5642",
"b. c #64635F",
"n. c #6B6158",
"m. c #796458",
"M. c #6A6762",
"N. c #6F6C6A",
"B. c #656263",
"V. c #77746E",
"C. c #6A6B71",
"Z. c #787573",
"A. c #843E14",
"S. c #903F12",
"D. c #8C3B08",
"F. c #834312",
"G. c #8B4514",
"H. c #8E4914",
"J. c #8B4319",
"K. c #944917",
"L. c #994C1A",
"P. c #97470F",
"I. c #A14911",
"U. c #A4521D",
"Y. c #B25519",
"T. c #824723",
"R. c #844A26",
"E. c #874C29",
"W. c #964D22",
"Q. c #994C21",
"!. c #8A5229",
"~. c #9D562C",
"^. c #9D5326",
"/. c #814D31",
"(. c #8B5833",
"). c #9D5C32",
"_. c #945B38",
"`. c #A45122",
"'. c #A45729",
"]. c #B35D2B",
"[. c #A35D33",
"{. c #A25D3B",
"}. c #9A6339",
"|. c #9C6131",
" X c #B4652F",
".X c #A66135",
"XX c #AB6434",
"oX c #A56339",
"OX c #AB6339",
"+X c #BA6B3D",
"@X c #B46539",
"#X c #886A56",
"$X c #956E54",
"%X c #8B715E",
"&X c #987257",
"*X c #B56C42",
"=X c #BB6F43",
"-X c #B87141",
";X c #8D7362",
":X c #85756A",
">X c #837A77",
",X c #887874",
"<X c #9C7A66",
"1X c #89827B",
"2X c #AD896E",
"3X c #B18C75",
"4X c #888581",
"5X c #918C8C",
"6X c #9C918A",
"7X c #959593",
"8X c #C19F85",
"9X c #C1A289",
"0X c #C3B7AC",
"qX c #BEC2C0",
"wX c #D6CCC1",
"eX c None",
/* pixels */
"eXeXeXeXeXeXeXeXeXeXeXeXeXeXeXeXeXeXeXeXeXeXeXeXeXeXeXeXeXeXeXeXeXeXeXeXeXeXeXeXeXeXeXeX>XeXeXeXeXeXeXeXeXeXeXeXeXeXeXeX",
"eXeXeXeXeXeXeXeXeXeXeXeXeXeXeXeXeXeXeXeXeXeXeXeXeXeXeXeXeXeXeXeXeXeXeXeXeXeXeXeXeXeXeXeX  eXeXeXA eXeXeXeXeXeXeXeXeXeXeX",
"eXeXeXeXeXeXeXeXeXeXeXeXeXeXeXeXeXeXeXeXeXeXeXeXeXeXeXeXeXeXeXeXeXeXeXeXeXeXeXeXeXeXeXM @ ;XeXeX  eXeXeXeXeXeXeXeXeXeXeX",
"eXeXeXeXeXeXeXeXeXeXeXeXeXeXeXeXeXeXeXeXeXeXeXeXeXeXeXeXeXeXeXeXeXeXeXeXeXeXeXeXeXeXeX  E &XeXP + ;XeXeXeXeXeXeXeXeXeXeX",
"eXeXeXeXeXeXeXeXeXeXeXeXeXeXeXeXeXeXeXeXeXeXeXeXeXeXeXeXeXeXeXeXeXeXeXeXeXeXeXeXeXeXeX  P.2XeX6 E $XeXeXeXeXeXeXeXeXeXeX",
"eXeXeXeXeXeXeXeXeXeXeXeXeXeXeXeXeXeXeXeXeXeXeXeXeXeXeXeXeXeXeXeXeXeXeXeXeXeXeXeXeXeX2 5 P.8XeX. S.$XeXeXeXeXeXeXeXeXeXeX",
"eXeXeXeXeXeXeXeXeXeXeXeXeXeXeXeXeXeXeXeXeXeXeXeXeXeXeXeXeXeXeXeXeXeXeXeXeXeXeXeXeXeX  } `.3Xh.@ Y.$XeXeXeXeXeXeXeXeXeXeX",
"eXeXeXeXeXeXeXeXeXeXeXeXeXeXeXeXeXeXeXeXeXeXeXeXeXeXeXeXeXeXeXeXeXeXeXeXeXeXeXeXeXeX  #.+X0.O y ^ t.eXeXeXeXeXeXeXeXeXeX",
"eXeXeXeXeXeXeXeXeXeXeXeXeXeXeXeXeXeXeXeXeXeXeXeXeXeXeXeXeXeXeXeXeXeXeXeXeXeXeXeXeXH . T.+X..8 D n , p.eXeXeXeXeXeXeXeXeX",
"eXeXeXeXeXeXeXeXeXeXeXeXeXeXeXeXeXeXeXeXeXeXeXeXeXeXeXeXeXeXeXeXeXeXeXeXeXeXeXeX3.  = T.XXO.- h C G X o eXeXeXeXeXeXeXeX",
"eXeXeXeXeXn - eXeXeXeXeXeXeXeXeXeXeXeXeXeXeXeXeXeXeXeXeXeXeXeXeXeXeXeXeXeXeXeXeX  N + #.F.i f p r u C y   eXeXeXeXeXeXeX",
"eXeXeXeXO * eXeXeXeXeXeXeXeXeXeXeXeXeXeXeXeXeXeXeXeXeXeXeXeXeXeXeXeXeXeXeXeXeXm e x & 7 q e j j j t : l r y eXeXeXeXeXeX",
"eXeXeX:.  eXeXeXeXeXeXeXeXeXeXeXeXeXeXeXeXeXeXeXeXeXeXeXeXeXeXeXeXeXeXeXeXeXeX. c 8 l 8 8 j l d 8 v (.J.$.  eXeXeXeXeXeX",
"eXeXeX  g.eXeXeXeXeXeXeXeXeXeXeXeXeXeXeXeXeXeXeXeXeXeXeXeXeXeXeXeXeXeXeXeXeXV.# x 9 r d j d ; : - ) r.5.$.& k.eXeXeXeXeX",
"eXeXN.  eXeXeXeXeXeXeXeXeXeXeXeXeXeXeXeXeXeXeXeXeXeXeXeXeXeXeXeXeXeXeXeXeXeXg g r r r d f 8 o.w.*.e ~ ( ; :   l.eXeXeXeX",
"eXeXN   eXeXeXeXeXeXeXeXeXeXeXeXeXeXeXeXeXeXeXeXeXeXeXeXeXeXeXeXeXeXeXeXeXeX  &.9 d r r 8 e.+X+X=X9.Q _ v ' p $.4XZ.eXeX",
"eXeXX # eXeXeXeXeXeXeXeXeXeXeXeXeXeXeXeXeXeXeXeXeXeXeXeXeXeXeXeXeXeXeXeXeXp.> Z r r r ; ( OX.X_.[..X!.(.[.{.[.Q.9XqX  , ",
"eXeX. > eXeXeXeXeXeXeXeXeXeXeXeXeXeXeXeXeXeXeXeXeXeXeXeXeXeXeXeXeXeXeXeXeXA x j r r r 6 z XXXX).).[.OX[.[.[.[.`.}.wXa.O ",
"eXeXX = eXeXeXeXeXeXeXeXeXeXeXeXeXeXeXeXeXeXeXeXeXeXeXeXeXeXeXeXeXeXeXeXeX# D d r r r r 6 0.-X.X).).).).[.).).~.|.0X7XeX",
"eXeX  + eXeXeXeXeXeXeXeXeXeXeXeXeXeXeXeXeXeXeXeXeXeXeXeXeXeXeXeXeXeXeXeXN.X D d u u r d e X >.@XXX[.OX[.oXOXOXK.}.1XeXeX",
"eXeX;   >XeXeXeXeXeXeXeXeXeXeXeXeXeXeXeXeXeXeXeXeXeXeXeXeXeXeXeXeXeXeXeX1 C l e u r r r h 6 i X.+.[ { {  .] ] E *.eXeXeX",
"eXeXz.  G eXeXeXeXeXeXeXeXeXeXeXeXeXeXeXeXeXeXeXeXeXeXeXeXeXeXeXeXeXM.- y 4.l 9 u r r r y ` H.5 :.6X:X:X:X,X4XeXeXeXeXeX",
"eXeXeX  @ n.eXeXeXeXeXeXeXeXeXeXeXeXeXeXeXeXeXeXeXeXeXeXeXeXeXl.N % # C 4.C r 9 u u r r y / G.5 eXeXeXeXeXeXeXeXeXeXeXeX",
"eXeXeXy . = V.eXeXeXeXeXeXeXb.H m y m M M M J p.l.eXa.k.J y X # g %.%.S l r r d r r r r y k F.U eXeXeXeXeXeXeXeXeXeXeXeX",
"eXeXeXeX  ; ; M.eXk.N 1 y # e x S D G S x c g e 8 g h > h S ;.&.D x l r 9 r d r r r r r 9 9 O.^ eXeXeXeXeXeXeXeXeXeXeXeX",
"eXeXeXeX4X  e # X % r x C C c x x C C x b b D Z D C c x x l l d d 9 9 d d d d r r r d r d 9 s q eXeXeXeXeXeXeXeXeXeXeXeX",
"eXeXeXeXeXs.. l l r 8 r r 9 r 8 9 r r r e 9 r r r r r r e r r r d d d u d r r d r r r r r k $ % eXeXeXeXeXeXeXeXeXeXeXeX",
"eXeXeXeXeX%.6 r r r d r r r r r r r r d d d r r r r r r r r r r r r r r d r r r r d r r r d $ , eXeXeXeXeXeXeXeXeXeXeXeX",
"eXeXeXeX>X. d d r r r d r r r r r r r r r r r d r r r d r r r r r r d r r r r r r r d r r j + 2 eXeXeXeXeXeXeXeXeXeXeXeX",
"eXeXeXeXs.= r r d d r u d r r d r r d r r d r r d r r r r r d r r r r r r r r r r r r r r j . B eXeXeXeXeXeXeXeXeXeXeXeX",
"eXeXeXeX6 8 r r r r d r r r r r d r r r r r d r r r u r d r r r d r r r r r r r r r j e > h   u.eXeXeXeXeXeXeXeXeXeXeXeX",
"eXeXeXeX  r r r u r r r r r r r r r r r u r r r r r r r r r r r r r r r r r r r r r r r ,.1.3 B.eXeXeXeXeXeXeXeXeXeXeXeX",
"eXeXeXl.  j r r d r r r r r d r r r u r r r r r r r r r r d r r r r r d r r r r r r 6 /.+XF.T ,XeXeXeXeXeXeXeXeXeXeXeXeX",
"eXeXeXF . d r r r r d r r r r r r r d r r r r r d r r u r d 9 6 r r r r h r r r r e u OXW. .R eXeXeXeXeXeXeXeXeXeXeXeXeX",
"eXeXeX< > d r r r r r r r r r j d r r d d r r d d r d r r j 6 6 j r u r r r r r r 8 d E.| | U 5XeXeXeXeXeXeXeXeXeXeXeXeX",
"eXeXeXo e d d r r d r r r r r r 6 r d r d r r r r r r r d g e = d d r r r r r r z o q A.@.G.w eXeXeXeXeXeXeXeXeXeXeXeXeX",
"eXeXeX% h r r r r r d r r d j 6 ; g d q r h r d d r r r r r l % 6 x r r r r r r r o X.A.@. .w eXeXeXeXeXeXeXeXeXeXeXeXeX",
"eXeXeX% g d r r r r r r r r d ; d x j j j d p d d r d d r d j 6 X l j r r r r j % w J.@.H.3 C.eXeXeXeXeXeXeXeXeXeXeXeXeX",
"eXeXeX- r r r r r d r r d j 1 o <     . . $ 9 j g l j d r r r j X 1 z r d r r k . / J.G.T t eXeXeXeXeXeXeXeXeXeXeXeXeXeX",
"eXeXeX% r u r r r r r r d l X     P a.V n ,         & 9 k j u l - # l u r r j e O +.L.R + eXeXeXeXeXeXeXeXeXeXeXeXeXeXeX",
"eXeXeX% e r r r r r r r l ; X   A eXeXeXeXeXeXeXl.H       . = d h X 8 j r r l o Y `.~ M eXeXeXeXeXeXeXeXeXeXeXeXeXeXeXeX",
"eXeXeX- 7 l r r d r r l y   %   eXeXeXeXeXeXeXeXeXeXeXeXz.H %       % z r r l - q /   eXeXeXeXeXeXeXeXeXeXeXeXeXeXeXeXeX",
"eXeXeX% 7 j u r r r l r # ;   >XeXeXeXeXeXeXeXeXeXeXeXeXeXeXeXeXp.O   d r r j ; O 1   eXeXeXeXeXeXeXeXeXeXeXeXeXeXeXeXeX",
"eXeXeXX u u r r r u g % ;   f.eXeXeXeXeXeXeXeXeXeXeXeXeXeXeXeXeXeXeXa.. j r j * < / . eXeXeXeXeXeXeXeXeXeXeXeXeXeXeXeXeX",
"eXeXV.  r r r r d d 8 ;   f.eXeXeXeXeXeXeXeXeXeXeXeXeXeXeXeXeXeXeXeXeX  j u j o ; k   eXeXeXeXeXeXeXeXeXeXeXeXeXeXeXeXeX",
"eXeX% % h r r d h : #   f.eXeXeXeXeXeXeXeXeXeXeXeXeXeXeXeXeXeXeXeXeXeX  q u j o 6 q   eXeXeXeXeXeXeXeXeXeXeXeXeXeXeXeXeX",
"eXb.  r r r d r 6 .   eXeXeXeXeXeXeXeXeXeXeXeXeXeXeXeXeXeXeXeXeXeXeXeX  9 u u o 6 7 % eXeXeXeXeXeXeXeXeXeXeXeXeXeXeXeXeX",
"eXe # d r l r 6   g eXeXeXeXeXeXeXeXeXeXeXeXeXeXeXeXeXeXeXeXeXeXeXeXeX# 7 u r O r 0 2 eXeXeXeXeXeXeXeXeXeXeXeXeXeXeXeXeX",
"eX  r 9 j 9 8   :.eXeXeXeXeXeXeXeXeXeXeXeXeXeXeXeXeXeXeXeXeXeXeXeXeXeXf $ u y o d $ m eXeXeXeXeXeXeXeXeXeXeXeXeXeXeXeXeX",
"M.  l d 9 6 & f eXeXeXeXeXeXeXeXeXeXeXeXeXeXeXeXeXeXeXeXeXeXeXeXeXeXeXL . k 6 # d + B eXeXeXeXeXeXeXeXeXeXeXeXeXeXeXeXeX",
"g.. r r & r   eXeXeXeXeXeXeXeXeXeXeXeXeXeXeXeXeXeXeXeXeXeXeXeXeXeXeXeXeX  z 6 . j . P eXeXeXeXeXeXeXeXeXeXeXeXeXeXeXeXeX",
"K X d r y r ; eXeXeXeXeXeXeXeXeXeXeXeXeXeXeXeXeXeXeXeXeXeXeXeXeXeXeXeXeX$ g ; O l   u.eXeXeXeXeXeXeXeXeXeXeXeXeXeXeXeXeX",
"N # h 6 & & 6 eXeXeXeXeXeXeXeXeXeXeXeXeXeXeXeXeXeXeXeXeXeXeXeXeXeXeXeXeXY X l ( % + m.eXeXeXeXeXeXeXeXeXeXeXeXeXeXeXeXeX",
"N $ 6 ( z / 2.eXeXeXeXeXeXeXeXeXeXeXeXeXeXeXeXeXeXeXeXeXeXeXeXeXeXeXeXeX! ` /.0.Q O.<XeXeXeXeXeXeXeXeXeXeXeXeXeXeXeXeXeX",
"-.@.!._.w. X/.eXeXeXeXeXeXeXeXeXeXeXeXeXeXeXeXeXeXeXeXeXeXeXeXeXeXeXeXeX! XX@X` }.`.#XeXeXeXeXeXeXeXeXeXeXeXeXeXeXeXeXeX",
"=.U.*XXX7.R.Q.eXeXeXeXeXeXeXeXeXeXeXeXeXeXeXeXeXeXeXeXeXeXeXeXeXeXeXeXeX} '.XX8.<.].r.eXeXeXeXeXeXeXeXeXeXeXeXeXeXeXeXeX",
"t. .{.XX).,.q.F.m.eXeXeXeXeXeXeXeXeXeXeXeXeXeXeXeXeXeXeXeXeXeXeXeXeXeXeX^ '.oXOX8.y.].` eXeXeXeXeXeXeXeXeXeXeXeXeXeXeXeX",
",XI XXOX[.OX<.O.| y.eXeXeXeXeXeXeXeXeXeXeXeXeXeXeXeXeXeXeXeXeXeXeXeXeXeXR '.{.~.XX=.q.U._ eXeXeXeXeXeXeXeXeXeXeXeXeXeXeX",
"eXU E { [  .D.R Y W 4 eXeXeXeXeXeXeXeXeXeXeXeXeXeXeXeXeXeXeXeXeXeXeXeXn.Y L.^.A.K.@.~ L.T *.eXeXeXeXeXeXeXeXeXeXeXeXeXeX",
"eXeXx.c.v.-.5.t.d.c.;XeXeXeXeXeXeXeXeXeXeXeXeXeXeXeXeXeXeXeXeXeXeXeXeXeX9.>.8.>.,.=.*.7.9.eXeXeXeXeXeXeXeXeXeXeXeXeXeXeX"
};
