/* XPM */
static char *result[] = {
/* columns rows colors chars-per-pixel */
"60 60 82 1 ",
"  c #202C38",
". c #212D39",
"X c #222E3A",
"o c #232E3A",
"O c #232F3B",
"+ c #25313D",
"@ c #26323D",
"# c #293440",
"$ c #2D3844",
"% c #323D48",
"& c #35404B",
"* c #38434E",
"= c #3B4650",
"- c #3C4651",
"; c #3F4953",
": c #3F4A54",
"> c #434D57",
", c #47515B",
"< c #4C555F",
"1 c #4E5861",
"2 c #505A63",
"3 c #545E67",
"4 c #58616A",
"5 c #5A636C",
"6 c #5B636C",
"7 c #5F6870",
"8 c #626A73",
"9 c #646D75",
"0 c #666E76",
"q c #697179",
"w c #69727A",
"e c #70777F",
"r c #717981",
"t c #757C84",
"y c #788087",
"u c #7C838A",
"i c #7E858C",
"p c #82898F",
"a c #858C93",
"s c #898F96",
"d c #90969C",
"f c #92989D",
"g c #93989E",
"h c #969CA1",
"j c #979DA2",
"k c #9A9FA4",
"l c #9DA2A8",
"z c #A0A5AA",
"x c #A1A6AB",
"c c #A4A9AE",
"v c #A6ABAF",
"b c #A9AEB3",
"n c #B0B5B9",
"m c #B2B6BA",
"M c #B8BCC0",
"N c #B9BDC1",
"B c #BCBFC3",
"V c #BEC2C5",
"C c #C1C4C8",
"Z c #C3C6C9",
"A c #C6C9CC",
"S c #CBCDD0",
"D c #CED1D3",
"F c #D0D2D5",
"G c #D1D3D6",
"H c #D3D6D8",
"J c #D9DBDD",
"K c #E0E2E4",
"L c #E1E3E4",
"P c #E7E8E9",
"I c #E7E9EA",
"U c #EAEBEC",
"Y c #EEEEEF",
"T c #F0F1F2",
"R c #F3F3F4",
"E c #F5F5F6",
"W c #F7F8F8",
"Q c #FBFBFB",
"! c gray99",
"~ c #FDFDFD",
"^ c #FEFEFE",
"/ c white",
/* pixels */
"////////////////////////////////////////////////////////////",
"////////////////////////////////////////////////////////////",
"/////p                                                w~////",
"//////u                                              9Q/////",
"//~////y                                            9Q//////",
"//e~///~e                                          9Q////s//",
"// t////~e                                        9Q////s //",
"//  u////!9                                      9Q////s  //",
"//   i////Q9                                    9Q////s   //",
"//    s////Q6                                  9Q////s    //",
"//     s////W5                                9Q////f     //",
"//      h////W3                              9Q////j      //",
"//       j////R2                            7Q////j       //",
"//        x////R1                          5W////j        //",
"//        .c////Y,                        5W////j         //",
"//         .b////Y,                      5W////j          //",
"//          on////U:                    5W////j           //",
"//           om////I:                  5W////j            //",
"//            +B////P*                5W////j             //",
"//             +B////K*              5W////j              //",
"//              @A////K&            5W////z               //",
"//               #A////J%          5W////c.               //",
"//                #D////J%        3W////c.                //",
"//                 $F////F$      2R////c.                 //",
"//                  $H////F$    2R////c.                  //",
"//                   %J////S#  2R////c.                   //",
"//                    %J////A#2R////c.                    //",
"//                     *K////GR////c.                     //",
"//                      *K////////c.                      //",
"//                       =I//////c.                       //",
"//                        q^////LO                        //",
"//                       2R//////no                       //",
"//                      <R////////v.                      //",
"//                     ,Y////VT////c.                     //",
"//                    ,Y////no2R////l                     //",
"//                   ,Y////no  2R////j                    //",
"//                  ,Y////no    4W////g                   //",
"//                 ,Y////no      5W////s                  //",
"//                ,Y////no        7Q////s                 //",
"//               ,Y////no          9Q////u                //",
"//              ,Y////Mo            0~////u               //",
"//             ,Y////B+              e~////r              //",
"//            >Y////B+                e^///~e             //",
"//           :I////B+                  u////~w            //",
"//          :I////B+                    u////Q9           //",
"//         :I////B+                      a////Q8          //",
"//        :I////B+                        s////W5         //",
"//       :I////B+                          d////W5        //",
"//      :I////B+                            j////E2       //",
"//     :I////B+                              k////R2      //",
"//    :I////Z+                               .c////R,     //",
"//   :I////A#                                 .c////Y,    //",
"//  -I////A#                                   Xn////Y>   //",
"// *K////A#                                     on////I:  //",
"//*K////A#                                       oN////I; //",
"//K////A#                                         +B////K*//",
"//////A#                                           +C////K//",
"/////A#                                             #A//////",
"////////////////////////////////////////////////////////////",
"////////////////////////////////////////////////////////////"
};
