/* XPM */
static char *result[] = {
/* columns rows colors chars-per-pixel */
"60 60 123 2 ",
"   c #020306",
".  c #01020D",
"X  c #07090C",
"o  c #12120E",
"O  c #030313",
"+  c #070917",
"@  c #110917",
"#  c #1F0718",
"$  c #0C1116",
"%  c #15151C",
"&  c #18151C",
"*  c #14181E",
"=  c #1B1D1D",
"-  c #211F0C",
";  c #221D1F",
":  c #1F221F",
">  c #272A1B",
",  c #2A2D1D",
"<  c #32341D",
"1  c #161E27",
"2  c #341B26",
"3  c #1C2226",
"4  c #1C242D",
"5  c #1C2631",
"6  c #1E2833",
"7  c #242323",
"8  c #2A2127",
"9  c #2D2924",
"0  c #252B29",
"q  c #322E26",
"w  c #333226",
"e  c #3C3C21",
"r  c #323229",
"t  c #3A372A",
"y  c #35392E",
"u  c #3B382B",
"i  c #202B36",
"p  c #282E30",
"a  c #202C38",
"s  c #26323E",
"d  c #482A18",
"f  c #403C15",
"g  c #423D2C",
"h  c #523B2E",
"j  c #633D24",
"k  c #4F4919",
"l  c #524B19",
"z  c #444324",
"x  c #46442E",
"c  c #474928",
"v  c #4C4C2B",
"b  c #534F27",
"n  c #5B5622",
"m  c #5E5B24",
"M  c #51522E",
"N  c #4D4430",
"B  c #534D33",
"V  c #5B5535",
"C  c #635B2B",
"Z  c #724B33",
"A  c #625937",
"S  c #605F38",
"D  c #67602A",
"F  c #69622D",
"G  c #666235",
"H  c #61623A",
"J  c #6B623D",
"K  c #6E6F3D",
"L  c #70663D",
"P  c #7D773A",
"I  c #283541",
"U  c #323A49",
"Y  c #766D41",
"T  c #7B6E42",
"R  c #7E7244",
"E  c #7F774A",
"W  c #7E7B4A",
"Q  c #837A3C",
"!  c #887D3C",
"~  c #817644",
"^  c #847C46",
"/  c #A67253",
"(  c #B27D5C",
")  c #84813C",
"_  c #8A8243",
"`  c #928643",
"'  c #92864B",
"]  c #988C4D",
"[  c #97904E",
"{  c #9C934B",
"}  c #9C9653",
"|  c #A2954E",
" . c #BB875F",
".. c #A19451",
"X. c #A59A55",
"o. c #AB9D54",
"O. c #ACA456",
"+. c #AEA559",
"@. c #B1A357",
"#. c #B3A558",
"$. c #B3AA5B",
"%. c #BBAC5B",
"&. c #BBB15C",
"*. c #B4B360",
"=. c #BDBC61",
"-. c #C0855E",
";. c #C3B55F",
":. c #C29165",
">. c #C19C68",
",. c #D59466",
"<. c #D59A69",
"1. c #C3BC62",
"2. c #CABD62",
"3. c #D3BF64",
"4. c #C2C166",
"5. c #CBC263",
"6. c #CAC866",
"7. c #CBC969",
"8. c #D5C265",
"9. c #D4CB66",
"0. c #D5CF68",
"q. c #D4D167",
"w. c #D5D269",
/* pixels */
"a a a a a a a a a a a a a a a a a a a a a a a a a a a a a a a a a a a a a a a a a a a a a a a a a a a a a a a a a a a a ",
"a a a a a a a a a a a a a a a a 6 a a a a a a a a a a a a a a a a a a a a a a a a a a a a a a a a a a a a a a a a a a a ",
"a a a a a a a a a a a a a a a a a a a a a a a a a a a a a a a a a a a a a a a a a a a a a a a a a a a a a a a a a a a a ",
"a a a a a a a a a a a a a a a a a a a a a a a a a a a a a a a a a a a a a a a a a a a a a a a a a a a a a a a a a a a a ",
"a a a a a a a a a a a a a a a a a a a a a a a a a a a a a a a a a a a a a a a a a a a a a a a a a a a a a a a a a a a a ",
"a a a a a a a a a a a a a a a a a a a a a a a a a a a a a a a a a a a a a a a a a a a a a a a a a a a a a a a a a a a a ",
"a a a a a a a a a a a a a a a a a a a a a a a a a a a a a a a a a a a a a a a a a a a a a a a a a a a a a a a a a a a a ",
"a a a a a a a a a a a a a a a a a a a a a a a a a a a a a a a a a a a a a a a a a a a a a a a a a a a a a a a a a a a a ",
"a a a a a a a a a a a a a a a a a a a a a a a a a a a a a a a a a a a a a a a a a a a a a a a a a a a a a a a a a a a a ",
"a a a a a a a a a a a a a a a a a a a a a a a a a a a a a a a a a a a a a a a a a a a a a a a a a a a a a a a a a a a a ",
"a a a a a a a a a a a a a a a a a a a a a a a a a a a a a a a a a a a a a a a a a a a a a a a a a a a a a a a a a a a a ",
"a a a a a a a a a a a a a a a a a a a a a a a a a a a a a a a a a a a a a a a a a a a a a a a a a a a a a a a a a a a a ",
"a a a a a a a a a a a a a a a a a a a a a a a a a a a a a a a a a a a a a a a a a a a a a a a a a a a a a a a a a a a a ",
"a a a a a a a a a a a a a a a a a a a a a a a a a a a a a a a a a a a a a a a a a a a a a a a a a a a a a a a a a a a a ",
"a a a a a a a a a a a a a a a a a a a a a a a a a a a a a i a a 6 a a 6 a a a a a a a a a a a a a a a a a a a a a a a a ",
"a a a a a a a a a a a a a a a a a a a a a a a a a a a a a 1 n { @.+.$._ c 6 a a a a a a a a a a a a a a a a a a a a a a ",
"a a a a a a a a a a a a a a a a a a a a a a a a a a 6 6 B 4.w.9.8.8.8.9.6.*.v 6 a a a a a a a a a a a a a a a a a a a a ",
"a a a a a a a a a a a a a a a a a a a a a a a a 3 0 7 W 4.9.8.8.8.8.8.8.8.8.4.H a a a a a a a a a a a a a a a a a a a a ",
"a a a a a a a a a a a a a a a a a a a a a a a a = +.1.6.2.8.8.8.8.8.8.8.8.8.8.4.c 6 a a a a a a a a a a a a a a a a a a ",
"a a a a a a a a a a a a a a a a a a a a a a a a U - 9.8.8.8.8.8.8.8.8.8.8.8.8.8.1.3 a a a a a a a a a a a a a a a a a a ",
"a a a a a a a a a a a a a a a a a a a a a a a a s - 9.8.8.8.3.8.8.8.8.8.8.9.w.9.w.n a a a a a a a a a a a a a a a a a a ",
"a a a a a a a a a a a a a a a a a a a a a a a a i C w.8.8.8.8.8.8.8.8.8.9.o.V #.w.[ 6 a a a a a a a a a a a a a a a a a ",
"a a a a a a a a a a a a a a a a a a a a a a a a i ! 9.8.8.8.8.8.8.8.8.8.0.x   A w.[ $ 6 a 6 a a a a a a a a a a a a a a ",
"a a a a a a a a a a a a a a a a a a a a a a a a a ' 0.8.3.8.8.8.8.8.8.8.8.] u +.w.r h 7 I I a a a a a a a a a a a a a a ",
"a a a a a a a a a a a a a a a a a a a a a a a a a _ 9.8.8.8.8.8.8.8.8.8.3.9.w.w.K @ <.-.j d j 8 a a a a a a a a a a a a ",
"a a a a a a a a a a a a a a a a a a a a a a a a 6 m q.8.8.8.8.8.3.8.8.8.8.8.8.x O / ,.,.<.<.>.q a a a a a a a a a a a a ",
"a a a a a a a a a a a a a a a a a a a a a a a a s 3 4.9.8.8.8.8.8.8.8.8.8.w.G # <.<.,.,.<.:.h a a a a a a a a a a a a a ",
"a a a a a a a a a a a a a a a a a a a a a a a a 6 6 M 4.3.8.8.8.8.8.8.8.8.w.H 2  .( ( / Z ; a a a a a a a a a a a a a a ",
"a a a a a a a a a a a a a a a a a a a a a a a a a a a G 7.9.3.8.8.8.8.8.8.8.2.y 1 i i a a a a a a a a a a a a a a a a a ",
"a a a a a a a a a a a a a a a a a a a a a a a a a a a a C 1.9.8.8.8.8.3.8.9.%.p a a a a a a a a a a a a a a a a a a a a ",
"a a a a a a a a a a a a a a a a a a a a a a a a a a 6 U   . o.0.8.8.8.8.8.9.o.1 a a a a a a a a a a a a a a a a a a a a ",
"a a a a a a a a a a a a 6 a a a a a a a a a a a a a r V E Y ;.9.8.8.8.8.8.8.6.S a a a a a a a a a a a a a a a a a a a a ",
"a a a a a a a a a a a a e M a a a a a a 6 > m { $.*.=.6.q.q.9.9.q.9.8.8.8.8.8.4.v a a a a a a a a a a a a a a a a a a a ",
"a a a a a a a a a a a a X X.^ 4 a 6 4 z { 6.w.9.8.8.3.8.9.w.9.o.^ o.9.w.8.8.3.8.1.z 6 s a a a a a a a a a a a a a a a a ",
"a a a a a a a a a a a a o % } =.` Q &.6.0.9.8.8.8.9.w.w.;.A 7 7 7 8 = ~ w.9.8.8.8.4.0 6 a a a a a a a a a a a a a a a a ",
"a a a a a a a a a a a a e X.O N 8.w.9.%.' @.8.9.8.%.' x + q ' 8.8.8.' O B w.8.8.8.0.{ 4 a a a a a a a a a a a a a a a a ",
"a a a a a a a a a a a a 5 } 5.9 ] q.w.] O t q t 9 9 w B o.w.w.8.9.9.w.2.O ^ w.8.8.8.6., a a a a a a a a a a a a a a a a ",
"a a a a a a a a a a a a 6 < 6.w.8.8.9.;.* { 8.X.&.8.9.w.9.8.8.8.8.8.3.w.^ & 9.8.8.8.w.m a a a a a a a a a a a a a a a a ",
"a a a a a a a a a a a a i 4 &.9.8.8.8.w.S % T ~ Y ' 9.8.8.8.8.8.8.8.8.9.2.: X.9.8.8.9.P a a a a a a a a a a a a a a a a ",
"a a a a a a a a a a a a 6 i P 9.8.8.8.9.%.O x J 9 Y q.8.8.8.8.8.3.8.8.8.9.7 _ w.8.8.0.) a a a a a a a a a a a a a a a a ",
"a a a a a a a a a a a a a a w 6.8.8.8.8.q.V g 9.q.8.2.8.8.8.8.8.8.8.8.9.$.& $.9.8.8.9.P i a a a a a a a a a a a a a a a ",
"a a a a a a a a a a a a a a 6 +.8.8.8.8.9.6.; O V 7 Y 9.8.8.8.8.8.8.8.w.M w w.8.8.8.w.m a a a a a a a a a a a a a a a a ",
"a a a a a a a a a a a a a i i v 6.8.8.8.3.q.&.O q ;.9.0.8.8.8.8.9.w.w.L O &.9.8.8.8.7.> a a a a a a a a a a a a a a a a ",
"a a a a a a a a a a a a a i i 4 O.9.8.8.8.3.w.&.9 g ] %.9.q.q.q.8...w + +.q.8.8.8.w.) 4 a a a a a a a a a a a a a a a a ",
"a a a a a a a a a a a a a a a a 3 4.q.8.8.8.3.q.9.R 7 % r x x g & % V 5.w.8.8.8.7.[ * a a a a a a a a a a a a a a a a a ",
"a a a a a a a a a a a a a a a a 6 : +.6.9.8.8.8.8.w.9.#.' ^ R ^ ..5.w.8.8.9.w.1.b 5 6 a a a a a a a a a a a a a a a a a ",
"a a a a a a a a a a a a a a a a 6 s 4 z | 5.q.q.w.w.q.w.w.w.w.w.w.q.w.q.5.{ n * 6 6 a a a a a a a a a a a a a a a a a a ",
"a a a a a a a a a a a a a a a a 6 s 6 6 4 > f k C C D F F F F F F C l f : 5 6 s 6 s a a a a a a a a a a a a a a a a a a ",
"a a a a a a a a a a a a a a a a a a a a a a a a a a a a a a a a a a a a a a a a a a a a a a a a a a a a a a a a a a a a ",
"a a a a a a a a a a a a a a a a a a a a a a a a a a a a a a a a a a a a a a a a a a a a a a a a a a a a a a a a a a a a ",
"a a a a a a a a a a a a a a a a a a a a a a a a a a a a a a a a a a a a a a a a a a a a a a a a a a a a a a a a a a a a ",
"a a a a a a a a a a a a a a a a a a a a a a a a a a a a a a a a a a a a a a a a a a a a a a a a a a a a a a a a a a a a ",
"a a a a a a a a a a a a a a a a a a a a a a a a a a a a a a a a a a a a a a a a a a a a a a a a a a a a a a a a a a a a ",
"a a a a a a a a a a a a a a a a a a a a a a a a a a a a a a a a a a a a a a a a a a a a a a a a a a a a a a a a a a a a ",
"a a a a a a a a a a a a a a a a a a a a a a a a a a a a a a a a a a a a a a a a a a a a a a a a a a a a a a a a a a a a ",
"a a a a a a a a a a a a a a a a a a a a a a a a a a a a a a a a a a a a a a a a a a a a a a a a a a a a a a a a a a a a ",
"a a a a a a a a a a a a a a a a a a a a a a a a a a a a a a a a a a a a a a a a a a a a a a a a a a a a a a a a a a a a ",
"a a a a a a a a a a a a a a a a a a a a a a a a a a a a a a a a a a a a a a a a a a a a a a a a a a a a a a a a a a a a ",
"a a a a a a a a a a a a a a a a a a a a a a a a a a a a a a a a a a a a a a a a a a a a a a a a a a a a a a a a a a a a ",
"a a a a a a a a a a a a a a a a a a a a a a a a a a a a a a a a a a a a a a a a a a a a a a a a a a a a a a a a a a a a "
};
