/* XPM */
static char *result[] = {
/* columns rows colors chars-per-pixel */
"60 60 214 2 ",
"   c #010000",
".  c #0B0301",
"X  c #0C0904",
"o  c #0D0C0A",
"O  c #0A090B",
"+  c #150200",
"@  c #180200",
"#  c #130C03",
"$  c #1B0D03",
"%  c #130E0B",
"&  c #1A0D0B",
"*  c #0E100D",
"=  c #1C1105",
"-  c #14120C",
";  c #1C140C",
":  c #1E1A0F",
">  c #191406",
",  c #141414",
"<  c #1C1611",
"1  c #1D1913",
"2  c #1A1C1C",
"3  c #2C0200",
"4  c #220000",
"5  c #370B00",
"6  c #22150C",
"7  c #29170B",
"8  c #241A0D",
"9  c #2B1B0E",
"0  c #201302",
"q  c #341D0C",
"w  c #361607",
"e  c #241B13",
"r  c #2D1F13",
"t  c #271B17",
"y  c #301F12",
"u  c #3A1910",
"i  c #2F200F",
"p  c #3B210D",
"a  c #2D2114",
"s  c #23211C",
"d  c #2E241A",
"f  c #2E2A1B",
"g  c #262113",
"h  c #322315",
"j  c #3C2615",
"k  c #32251A",
"l  c #3A271A",
"z  c #352A1D",
"x  c #3A2C1C",
"c  c #3A2A15",
"v  c #3B311E",
"b  c #1E2623",
"n  c #242322",
"m  c #2A2626",
"M  c #2C2925",
"N  c #2C2D2C",
"B  c #23262A",
"V  c #352C22",
"C  c #3A2D23",
"Z  c #322A26",
"A  c #343324",
"S  c #3A3325",
"D  c #3C3228",
"F  c #37382C",
"G  c #2A3031",
"H  c #393938",
"J  c #560B00",
"K  c #451500",
"L  c #471903",
"P  c #5E1500",
"I  c #561C01",
"U  c #661A01",
"Y  c #781E00",
"T  c #48240D",
"R  c #542100",
"E  c #52210B",
"W  c #5C2507",
"Q  c #442611",
"!  c #472A15",
"~  c #44291A",
"^  c #442517",
"/  c #5C2C12",
"(  c #583417",
")  c #44341B",
"_  c #6E2E03",
"`  c #682905",
"'  c #772F03",
"]  c #66320C",
"[  c #7A390C",
"{  c #773207",
"}  c #622F12",
"|  c #653A1C",
" . c #643215",
".. c #713414",
"X. c #7A3A13",
"o. c #773D18",
"O. c #42392D",
"+. c #433328",
"@. c #523422",
"#. c #593926",
"$. c #453B32",
"%. c #423F39",
"&. c #6B3D23",
"*. c #653D29",
"=. c #753D28",
"-. c #35422F",
";. c #3A4635",
":. c #2C4832",
">. c #744018",
",. c #5E4028",
"<. c #45423F",
"1. c #5C4435",
"2. c #6C4124",
"3. c #6D432B",
"4. c #65422A",
"5. c #724228",
"6. c #7E4C2E",
"7. c #76462C",
"8. c #7E5029",
"9. c #644A3B",
"0. c #7A4833",
"q. c #373A41",
"w. c #433F40",
"e. c #3A5C46",
"r. c #3F775C",
"t. c #3C614A",
"y. c #4D4B4A",
"u. c #454543",
"i. c #514A46",
"p. c #584641",
"a. c #435E40",
"s. c #58534F",
"d. c #575348",
"f. c #40505F",
"g. c #595553",
"h. c #5D5B5B",
"j. c #545555",
"k. c #735D47",
"l. c #685142",
"z. c #5F6541",
"x. c #41785D",
"c. c #67625B",
"v. c #796458",
"b. c #427E62",
"n. c #6A6762",
"m. c #6A6767",
"M. c #77746E",
"N. c #787573",
"B. c #6A6B71",
"V. c #843E14",
"C. c #903F12",
"Z. c #8C3B08",
"A. c #844412",
"S. c #8B4514",
"D. c #8E4914",
"F. c #884419",
"G. c #944917",
"H. c #994C1A",
"J. c #97470F",
"K. c #A14911",
"L. c #A4521D",
"P. c #B25519",
"I. c #824723",
"U. c #854B27",
"Y. c #974D22",
"T. c #8A5229",
"R. c #9D562C",
"E. c #9D5326",
"W. c #814D31",
"Q. c #8B5833",
"!. c #9D5C32",
"~. c #945B38",
"^. c #A45122",
"/. c #A45729",
"(. c #B35D2B",
"). c #A35D33",
"_. c #A25D3B",
"`. c #9A6236",
"'. c #B4652F",
"]. c #A66135",
"[. c #AB6434",
"{. c #A56339",
"}. c #AB6339",
"|. c #BA6B3D",
" X c #B46539",
".X c #886A56",
"XX c #8B715E",
"oX c #987257",
"OX c #956E54",
"+X c #B56C42",
"@X c #BB6F43",
"#X c #B87141",
"$X c #8D7362",
"%X c #85756A",
"&X c #877975",
"*X c #9C7A66",
"=X c #438165",
"-X c #468D6F",
";X c #468E70",
":X c #489474",
">X c #489979",
",X c #89827B",
"<X c #AD896E",
"1X c #B18C75",
"2X c #888581",
"3X c #918C8C",
"4X c #9C918A",
"5X c #959593",
"6X c #C19F85",
"7X c #C1A289",
"8X c #C3B7AC",
"9X c #BEC2C0",
"0X c #D6CCC1",
"qX c None",
/* pixels */
"qXqXqXqXqXqXqXqXqXqXqXqXqXqXqX&XqXqXqXqXqXqXqXqXqXqXqXqXqXqXqXqXqXqXqXqXqXqXqXqXqXqXqXqXqXqXqXqXqXqXqXqXqXqXqXqXqXqXqXqX",
"qXqXqXqXqXqXqXqXqXqXqXV qXqXqX  qXqXqXqXqXqXqXqXqXqXqXqXqXqXqXqXqXqXqXqXqXqXqXqXqXqXqXqXqXqXqXqXqXqXqXqXqXqXqXqXqXqXqXqX",
"qXqXqXqXqXqXqXqXqXqXqX  qXqX$X@ B qXqXqXqXqXqXqXqXqXqXqXqXqXqXqXqXqXqXqXqXqXqXqXqXqXqXqXqXqXqXqXqXqXqXqXqXqXqXqXqXqXqXqX",
"qXqXqXqXqXqXqXqXqXqX$X@ H qXoXU   qXqXqXqXqXqXqXqXqXqXqXqXqXqXqXqXqXqXqXqXqXqXqXqXqXqXqXqXqXqXqXqXqXqXqXqXqXqXqXqXqXqXqX",
"qXqXqXqXqXqXqXqXqXqXOXU & qX<XJ.  qXqXqXqXqXqXqXqXqXqXqXqXqXqXqXqXqXqXqXqXqXqXqXqXqXqXqXqXqXqXqXqXqXqXqXqXqXqXqXqXqXqXqX",
"qXqXqXqXqXqXqXqXqXqX.XC.. qX6XK.5 2 qXqXqXqXqXqXqXqXqXqXqXqXqXqXqXqXqXqXqXqXqXqXqXqXqXqXqXqXqXqXqXqXqXqXqXqXqXqXqXqXqXqX",
"qXqXqXqXqXqXqXqXqXqXoXP.@ f.1X^.]   qXqXqXqXqXqXqXqXqXqXqXqXqXqXqXqXqXqXqXqXqXqXqXqXqXqXqXqXqXqXqXqXqXqXqXqXqXqXqXqXqXqX",
"qXqXqXqXqXqXqXqXqXqX9./ 7 O 3.|.o.  qXqXqXqXqXqXqXqXqXqXqXqXqXqXqXqXqXqXqXqXqXqXqXqXqXqXqXqXqXqXqXqXqXqXqXqXqXqXqXqXqXqX",
"qXqXqXqXqXqXqXqXqXy., b A 8 } #XI.. G qXqXqXqXqXqXqXqXqXqXqXqXqXqXqXqXqXqXqXqXqXqXqXqXqXqXqXqXqXqXqXqXqXqXqXqXqXqXqXqXqX",
"qXqXqXqXqXqXqXqXX + D V a : } '.U.$   <.qXqXqXqXqXqXqXqXqXqXqXqXqXqXqXqXqXqXqXqXqXqXqXqXqXqXqXqXqXqXqXqXqXqXqXqXqXqXqXqX",
"qXqXqXqXqXqXqX  t Z r r i e u V.>.. m   qXqXqXqXqXqXqXqXqXqXqXqXqXqXqXqXqXqXqXqXqXqXqXqXqXqXqXqXqXqXqXqXqX* n qXqXqXqXqX",
"qXqXqXqXqXqXe 9 k 1 r h a d e q w & z e s qXqXqXqXqXqXqXqXqXqXqXqXqXqXqXqXqXqXqXqXqXqXqXqXqXqXqXqXqXqXqXqXqXo X qXqXqXqX",
"qXqXqXqXqXqX  +.T.Q.c 8 h d h g 8 h 8 C . qXqXqXqXqXqXqXqXqXqXqXqXqXqXqXqXqXqXqXqXqXqXqXqXqXqXqXqXqXqXqXqXqXqX  H qXqXqX",
"qXqXqXqXqXg.& C 1.I.! - : : a h g h 9 x # N.qXqXqXqXqXqXqXqXqXqXqXqXqXqXqXqXqXqXqXqXqXqXqXqXqXqXqXqXqXqXqXqXqXd.  qXqXqX",
"qXqXqXqXh.. : : l E r @.6.| 8 e r y r r k s qXqXqXqXqXqXqXqXqXqXqXqXqXqXqXqXqXqXqXqXqXqXqXqXqXqXqXqXqXqXqXqXqXqX  m.qXqX",
"qXqXN.2X+.9 ) c / T *.+X|.|.5.8 r g r 9 O.  qXqXqXqXqXqXqXqXqXqXqXqXqXqXqXqXqXqXqXqXqXqXqXqXqXqXqXqXqXqXqXqXqXqX  Z qXqX",
",   0X7XY.).)._.Q.T.].).!.].}.~ : r r r v > y.qXqXqXqXqXqXqXqXqXqXqXqXqXqXqXqXqXqXqXqXqXqXqXqXqXqXqXqXqXqXqXqXqX# X qXqX",
"O e.0X`.^.).).).].[.).!.!.{.].j 6 r r r h v A qXqXqXqXqXqXqXqXqXqXqXqXqXqXqXqXqXqXqXqXqXqXqXqXqXqXqXqXqXqXqXqXqX& . qXqX",
"qX5X8X`./.!.).).!.!.).!.`.#X5.< r r r r g S # qXqXqXqXqXqXqXqXqXqXqXqXqXqXqXqXqXqXqXqXqXqXqXqXqXqXqXqXqXqXqXqXqX$ . qXqX",
"qXqX&X`.G.}.}.).].).).[. X&.# e r r y y f <.X B.qXqXqXqXqXqXqXqXqXqXqXqXqXqXqXqXqXqXqXqXqXqXqXqXqXqXqXqXqXqXqXqX#   qXqX",
"qXqXqX#.U _ _ ' ' _ ` ] | w 9 e r r k F r.;X-.1 qXqXqXqXqXqXqXqXqXqXqXqXqXqXqXqXqXqXqXqXqXqXqXqXqXqXqXqXqXqXqX&X  : qXqX",
"qXqXqXqXqX,X&X&X%X%X4Xw.5 D.( e r A e.=X>Xr.y.e - n.qXqXqXqXqXqXqXqXqXqXqXqXqXqXqXqXqXqXqXqXqXqXqXqXqXqXqXqXqXD   j.qXqX",
"qXqXqXqXqXqXqXqXqXqXqXqX5 D.! s -.b.:X=Xe.A V $.V # # m h.qXqXqXqXqXqXqXqXqXqXqXqXqXqXqXqXqXqXqXqXqXqXqXqXqXc.+   qXqXqX",
"qXqXqXqXqXqXqXqXqXqXqXqXL F.A e.;X>Xe.F f a r z S O.O.M # X t F j.w.qXh.y.F B M m n t b G n.qXqXqXqXqXqXqXM.$ . e qXqXqX",
"qXqXqXqXqXqXqXqXqXqXqXqX( z.=X:Xb.;.k a r h a 9 e h z S +.$.A g 0 g f : e f z z A D S S z e # e e M g.qXn.> <   qXqXqXqX",
"qXqXqXqXqXqXqXqXqXqXqXqXa.:X=Xe.A d a r r g i a d 9 i i d k k x x x S C S C v x C C z z x V V V z a # . # r   2XqXqXqXqX",
"qXqXqXqXqXqXqXqXqXqXqXqXb :.-.k a a r r r r r a r a 9 r 9 e r r 9 e r r r e 9 r e r r 8 8 9 r 9 e 8 d k k . y.qXqXqXqXqX",
"qXqXqXqXqXqXqXqXqXqXqXqX, > h a a g r r r a r r r r h r r r r r r r r r r r y r r r r r r r y r a a r r 9 6 $.qXqXqXqXqX",
"qXqXqXqXqXqXqXqXqXqXqXqX2 + h r a r a r h r r r y r r r r r r y r r r r r r r r r r r r r a r r r r r r r d . &XqXqXqXqX",
"qXqXqXqXqXqXqXqXqXqXqXqXN . h r a r r r r r r r r r r r r a r r r r r r r a r r r r r r r r r r r r r r r r > i.qXqXqXqX",
"qXqXqXqXqXqXqXqXqXqXqXqXH   g > r a r r r r a r r r r r r r r r r d r r r r r y r r r r r r r r r a d r r r 6 6 qXqXqXqX",
"qXqXqXqXqXqXqXqXqXqXqXqXm.3 o.*.t 9 a r r r r r r r d r r r r a r y r r a r r a r r r r r a r r y r r r r r r   qXqXqXqX",
"qXqXqXqXqXqXqXqXqXqXqXqX&XU V.|.W.6 r r r r a r y r r r r r r r r r r r r r r r a r r r r r r r r r r r a r a   h.qXqXqX",
"qXqXqXqXqXqXqXqXqXqXqXqXqXI ..Y.{.y e r r r r r r r r r 9 6 y r r r d r r r r r r r r r r r a r a r r r r r a . F qXqXqX",
"qXqXqXqXqXqXqXqXqXqXqXqX3XK [ [ U.h 6 r r a r r r r r h 6 6 h r r r r r r r r r r r r h h r r r r r r a r a a = , qXqXqX",
"qXqXqXqXqXqXqXqXqXqXqXqXqXw A.X.V.u % l r r r r r r r d > r d r r r r r r r r d r a r 6 r a r r r r y r r r a e % qXqXqX",
"qXqXqXqXqXqXqXqXqXqXqXqXqXw { o.V. .% t d r r a r h k < % k r r r r r a a r r r q y d : 6 h r r r r r r r r h s # qXqXqX",
"qXqXqXqXqXqXqXqXqXqXqXqXqXB.3 D.X.V.w % h r r y r h k # : h r r r r r a g i h h h h k g > d r r r r r r r r r h - qXqXqX",
"qXqXqXqXqXqXqXqXqXqXqXqXqXqXr P D.F.L O h y r r r c 6 X h y r y h h k d d 9 $ . .     1 o < h r r r r r d r y y - qXqXqX",
"qXqXqXqXqXqXqXqXqXqXqXqXqXqXqX@ I H.o.O 6 h r r r h o - h h h h y $         , 2 B u.H     X k y r r y r r r y e % qXqXqX",
"qXqXqXqXqXqXqXqXqXqXqXqXqXqXqXqXM E L.T O h r r h 8 . f h & .       N h.qXqXqXqXqXqXqXZ   . : k r r r r r r h e % qXqXqX",
"qXqXqXqXqXqXqXqXqXqXqXqXqXqXqXqXqX  Q q % k r r k %       o G j.qXqXqXqXqXqXqXqXqXqXqXqX  -   t h r r r r a y 7 - qXqXqX",
"qXqXqXqXqXqXqXqXqXqXqXqXqXqXqXqXqX. e X > k r r h   O y.qXqXqXqXqXqXqXqXqXqXqXqXqXqXqXqXN.  : + t d r r r r y 9 # qXqXqX",
"qXqXqXqXqXqXqXqXqXqXqXqXqXqXqXqXqX  j < o h y k . <.qXqXqXqXqXqXqXqXqXqXqXqXqXqXqXqXqXqXqXg.  : > d y r r r y y X qXqXqX",
"qXqXqXqXqXqXqXqXqXqXqXqXqXqXqXqXqX  p ; o h r h   qXqXqXqXqXqXqXqXqXqXqXqXqXqXqXqXqXqXqXqXqXs.  : ; a d r r a a   M.qXqX",
"qXqXqXqXqXqXqXqXqXqXqXqXqXqXqXqXqX  y 6 o h a q   qXqXqXqXqXqXqXqXqXqXqXqXqXqXqXqXqXqXqXqXqXqXs.  # 8 g h r g r # - qXqX",
"qXqXqXqXqXqXqXqXqXqXqXqXqXqXqXqXqX% 9 7 o d h 9   qXqXqXqXqXqXqXqXqXqXqXqXqXqXqXqXqXqXqXqXqXqXqXqX. . 6 r h r r d   c.qX",
"qXqXqXqXqXqXqXqXqXqXqXqXqXqXqXqXqX2 0 r X e h 7 # qXqXqXqXqXqXqXqXqXqXqXqXqXqXqXqXqXqXqXqXqXqXqXqXqXs   6 r d r a # e qX",
"qXqXqXqXqXqXqXqXqXqXqXqXqXqXqXqXqXB = d X t h 4 s qXqXqXqXqXqXqXqXqXqXqXqXqXqXqXqXqXqXqXqXqXqXqXqXqXqX<.  8 r a 9 i   qX",
"qXqXqXqXqXqXqXqXqXqXqXqXqXqXqXqXqXN + h X 6 h . %.qXqXqXqXqXqXqXqXqXqXqXqXqXqXqXqXqXqXqXqXqXqXqXqXqXqXqXs $ 6 r r d   n.",
"qXqXqXqXqXqXqXqXqXqXqXqXqXqXqXqXqXH   h X : c   qXqXqXqXqXqXqXqXqXqXqXqXqXqXqXqXqXqXqXqXqXqXqXqXqXqXqXqXqX  e 6 r d . d.",
"qXqXqXqXqXqXqXqXqXqXqXqXqXqXqXqXqXq.  h X ; h 6 qXqXqXqXqXqXqXqXqXqXqXqXqXqXqXqXqXqXqXqXqXqXqXqXqXqXqXqXqX& r 7 r a # H ",
"qXqXqXqXqXqXqXqXqXqXqXqXqXqXqXqXqXv.@ o ~ l X L qXqXqXqXqXqXqXqXqXqXqXqXqXqXqXqXqXqXqXqXqXqXqXqXqXqXqXqXqX6 % < 6 t # M ",
"qXqXqXqXqXqXqXqXqXqXqXqXqXqXqXqXqX*X] ! =.6.( R qXqXqXqXqXqXqXqXqXqXqXqXqXqXqXqXqXqXqXqXqXqXqXqXqXqXqXqXqX4.Q l ~ 7 $ Z ",
"qXqXqXqXqXqXqXqXqXqXqXqXqXqXqXqXqX.X^._.( +X].R qXqXqXqXqXqXqXqXqXqXqXqXqXqXqXqXqXqXqXqXqXqXqXqXqXqXqXqXqXW.'.6.~.T.X.#.",
"qXqXqXqXqXqXqXqXqXqXqXqXqXqXqXqXqX8.(.=.&.[./.W qXqXqXqXqXqXqXqXqXqXqXqXqXqXqXqXqXqXqXqXqXqXqXqXqXqXqXqXqXY.U.&.).+XL.*.",
"qXqXqXqXqXqXqXqXqXqXqXqXqXqXqXqX( (.0.3.[.[.R.W qXqXqXqXqXqXqXqXqXqXqXqXqXqXqXqXqXqXqXqXqXqXqXqXqXqXqXv.A.7.*.!.].].{ 9.",
"qXqXqXqXqXqXqXqXqXqXqXqXqXqXqX .L.6.#.[.R._.R.I qXqXqXqXqXqXqXqXqXqXqXqXqXqXqXqXqXqXqXqXqXqXqXqXqXqX0.{ | =.[.).].[.J &X",
"qXqXqXqXqXqXqXqXqXqXqXqXqXqX@.P H.I o.G.V.E.Y.L c.qXqXqXqXqXqXqXqXqXqXqXqXqXqXqXqXqXqXqXqXqXqXqXqX4 ' L E Z.{ ' ' U K qX",
"qXqXqXqXqXqXqXqXqXqXqXqXqXqXqX4.&.@.#.4.&.3.=.4.qXqXqXqXqXqXqXqXqXqXqXqXqXqXqXqXqXqXqXqXqXqXqXqXqX$Xk.1.1.1.#.l.k.l.qXqX"
};
