/* XPM */
static char *result[] = {
/* columns rows colors chars-per-pixel */
"60 60 214 2 ",
"   c #010000",
".  c #0B0301",
"X  c #0C0904",
"o  c #0D0C0A",
"O  c #0A090B",
"+  c #150200",
"@  c #180200",
"#  c #130C03",
"$  c #1B0D03",
"%  c #130E0B",
"&  c #1A0D0B",
"*  c #0E100D",
"=  c #1C1105",
"-  c #14120C",
";  c #1C140C",
":  c #1E1A0F",
">  c #191406",
",  c #141414",
"<  c #1C1611",
"1  c #1D1913",
"2  c #1A1C1C",
"3  c #2C0200",
"4  c #220000",
"5  c #370B00",
"6  c #22150C",
"7  c #29170B",
"8  c #241A0D",
"9  c #2B1B0E",
"0  c #201302",
"q  c #341D0C",
"w  c #361607",
"e  c #241B13",
"r  c #2D1F13",
"t  c #271B17",
"y  c #301F12",
"u  c #3A1910",
"i  c #2F200F",
"p  c #3B210D",
"a  c #2D2114",
"s  c #23211C",
"d  c #2E241A",
"f  c #2E2A1B",
"g  c #262113",
"h  c #322315",
"j  c #3C2615",
"k  c #32251A",
"l  c #3A271A",
"z  c #352A1D",
"x  c #3A2C1C",
"c  c #3A2A15",
"v  c #3B311E",
"b  c #1E2623",
"n  c #242322",
"m  c #2A2626",
"M  c #2C2925",
"N  c #2C2D2C",
"B  c #23262A",
"V  c #352C22",
"C  c #3A2D23",
"Z  c #322A26",
"A  c #343324",
"S  c #3A3325",
"D  c #3C3228",
"F  c #37382C",
"G  c #2A3031",
"H  c #393938",
"J  c #560B00",
"K  c #451500",
"L  c #471903",
"P  c #5E1500",
"I  c #561C01",
"U  c #661A01",
"Y  c #781E00",
"T  c #48240D",
"R  c #542100",
"E  c #52210B",
"W  c #5C2507",
"Q  c #442611",
"!  c #472A15",
"~  c #44291A",
"^  c #442517",
"/  c #5C2C12",
"(  c #583417",
")  c #44341B",
"_  c #6E2E03",
"`  c #682905",
"'  c #772F03",
"]  c #66320C",
"[  c #7A390C",
"{  c #773207",
"}  c #622F12",
"|  c #653A1C",
" . c #643215",
".. c #713414",
"X. c #7A3A13",
"o. c #773D18",
"O. c #42392D",
"+. c #433328",
"@. c #523422",
"#. c #593926",
"$. c #453B32",
"%. c #423F39",
"&. c #6B3D23",
"*. c #653D29",
"=. c #753D28",
"-. c #35422F",
";. c #3A4635",
":. c #2C4832",
">. c #744018",
",. c #5E4028",
"<. c #45423F",
"1. c #5C4435",
"2. c #6C4124",
"3. c #6D432B",
"4. c #65422A",
"5. c #724228",
"6. c #7E4C2E",
"7. c #76462C",
"8. c #7E5029",
"9. c #644A3B",
"0. c #7A4833",
"q. c #373A41",
"w. c #433F40",
"e. c #3A5C46",
"r. c #3F775C",
"t. c #3C614A",
"y. c #4D4B4A",
"u. c #454543",
"i. c #514A46",
"p. c #584641",
"a. c #435E40",
"s. c #58534F",
"d. c #575348",
"f. c #40505F",
"g. c #595553",
"h. c #5D5B5B",
"j. c #545555",
"k. c #735D47",
"l. c #685142",
"z. c #5F6541",
"x. c #41785D",
"c. c #67625B",
"v. c #796458",
"b. c #427E62",
"n. c #6A6762",
"m. c #6A6767",
"M. c #77746E",
"N. c #787573",
"B. c #6A6B71",
"V. c #843E14",
"C. c #903F12",
"Z. c #8C3B08",
"A. c #844412",
"S. c #8B4514",
"D. c #8E4914",
"F. c #884419",
"G. c #944917",
"H. c #994C1A",
"J. c #97470F",
"K. c #A14911",
"L. c #A4521D",
"P. c #B25519",
"I. c #824723",
"U. c #854B27",
"Y. c #974D22",
"T. c #8A5229",
"R. c #9D562C",
"E. c #9D5326",
"W. c #814D31",
"Q. c #8B5833",
"!. c #9D5C32",
"~. c #945B38",
"^. c #A45122",
"/. c #A45729",
"(. c #B35D2B",
"). c #A35D33",
"_. c #A25D3B",
"`. c #9A6236",
"'. c #B4652F",
"]. c #A66135",
"[. c #AB6434",
"{. c #A56339",
"}. c #AB6339",
"|. c #BA6B3D",
" X c #B46539",
".X c #886A56",
"XX c #8B715E",
"oX c #987257",
"OX c #956E54",
"+X c #B56C42",
"@X c #BB6F43",
"#X c #B87141",
"$X c #8D7362",
"%X c #85756A",
"&X c #877975",
"*X c #9C7A66",
"=X c #438165",
"-X c #468D6F",
";X c #468E70",
":X c #489474",
">X c #489979",
",X c #89827B",
"<X c #AD896E",
"1X c #B18C75",
"2X c #888581",
"3X c #918C8C",
"4X c #9C918A",
"5X c #959593",
"6X c #C19F85",
"7X c #C1A289",
"8X c #C3B7AC",
"9X c #BEC2C0",
"0X c #D6CCC1",
"qX c None",
/* pixels */
"qXqXqXqXqXqXqXqXqXqXqXqXqXqXqXqXqXqXqXqXqXqXqXqXqXqXqXqXqXqXqXqXqXqXqXqXqXqXqXqXqXqXqXqX&XqXqXqXqXqXqXqXqXqXqXqXqXqXqXqX",
"qXqXqXqXqXqXqXqXqXqXqXqXqXqXqXqXqXqXqXqXqXqXqXqXqXqXqXqXqXqXqXqXqXqXqXqXqXqXqXqXqXqXqXqX  qXqXqXZ qXqXqXqXqXqXqXqXqXqXqX",
"qXqXqXqXqXqXqXqXqXqXqXqXqXqXqXqXqXqXqXqXqXqXqXqXqXqXqXqXqXqXqXqXqXqXqXqXqXqXqXqXqXqXqXB @ XXqXqX  qXqXqXqXqXqXqXqXqXqXqX",
"qXqXqXqXqXqXqXqXqXqXqXqXqXqXqXqXqXqXqXqXqXqXqXqXqXqXqXqXqXqXqXqXqXqXqXqXqXqXqXqXqXqXqX  U oXqXq.+ $XqXqXqXqXqXqXqXqXqXqX",
"qXqXqXqXqXqXqXqXqXqXqXqXqXqXqXqXqXqXqXqXqXqXqXqXqXqXqXqXqXqXqXqXqXqXqXqXqXqXqXqXqXqXqX  G.<XqX< U OXqXqXqXqXqXqXqXqXqXqX",
"qXqXqXqXqXqXqXqXqXqXqXqXqXqXqXqXqXqXqXqXqXqXqXqXqXqXqXqXqXqXqXqXqXqXqXqXqXqXqXqXqXqX, 5 K.7XqX. C.OXqXqXqXqXqXqXqXqXqXqX",
"qXqXqXqXqXqXqXqXqXqXqXqXqXqXqXqXqXqXqXqXqXqXqXqXqXqXqXqXqXqXqXqXqXqXqXqXqXqXqXqXqXqX  ] L.1Xf.@ P.OXqXqXqXqXqXqXqXqXqXqX",
"qXqXqXqXqXqXqXqXqXqXqXqXqXqXqXqXqXqXqXqXqXqXqXqXqXqXqXqXqXqXqXqXqXqXqXqXqXqXqXqXqXqX  o.|.5.O 7 W 9.qXqXqXqXqXqXqXqXqXqX",
"qXqXqXqXqXqXqXqXqXqXqXqXqXqXqXqXqXqXqXqXqXqXqXqXqXqXqXqXqXqXqXqXqXqXqXqXqXqXqXqXqXG X I.#X} 8 S b , y.qXqXqXqXqXqXqXqXqX",
"qXqXqXqXqXqXqXqXqXqXqXqXqXqXqXqXqXqXqXqXqXqXqXqXqXqXqXqXqXqXqXqXqXqXqXqXqXqXqXqX<.  $ I.'.} : a V D + X qXqXqXqXqXqXqXqX",
"qXqXqXqXqXn - qXqXqXqXqXqXqXqXqXqXqXqXqXqXqXqXqXqXqXqXqXqXqXqXqXqXqXqXqXqXqXqXqX  M + o.X.u e a r r Z t   qXqXqXqXqXqXqX",
"qXqXqXqXO * qXqXqXqXqXqXqXqXqXqXqXqXqXqXqXqXqXqXqXqXqXqXqXqXqXqXqXqXqXqXqXqXqXn e z & 7 q e h h h a 1 f r e qXqXqXqXqXqX",
"qXqXqX%.  qXqXqXqXqXqXqXqXqXqXqXqXqXqXqXqXqXqXqXqXqXqXqXqXqXqXqXqXqXqXqXqXqXqX. z r a e g h d r e j Q.T.)   qXqXqXqXqXqX",
"qXqXqX  d.qXqXqXqXqXqXqXqXqXqXqXqXqXqXqXqXqXqXqXqXqXqXqXqXqXqXqXqXqXqXqXqXqXM.# x 7 a a h a : : > ! 7.*.~ & g.qXqXqXqXqX",
"qXqXm.  qXqXqXqXqXqXqXqXqXqXqXqXqXqXqXqXqXqXqXqXqXqXqXqXqXqXqXqXqXqXqXqXqXqXd d a 9 r a e 8 &.6.@.r E C e 1   h.qXqXqXqX",
"qXqXZ   qXqXqXqXqXqXqXqXqXqXqXqXqXqXqXqXqXqXqXqXqXqXqXqXqXqXqXqXqXqXqXqXqXqX  O.9 r r r e 2.|.|.+X,.T / j ) 9 +.2XN.qXqX",
"qXqX. # qXqXqXqXqXqXqXqXqXqXqXqXqXqXqXqXqXqXqXqXqXqXqXqXqXqXqXqXqXqXqXqXqXy.; x r y r : ~ [.).!.).].T.Q.)._.).Y.7X9X  , ",
"qXqX. > qXqXqXqXqXqXqXqXqXqXqXqXqXqXqXqXqXqXqXqXqXqXqXqXqXqXqXqXqXqXqXqXqXZ z h 9 a r e j ].{.!.!.!.}.).).).).^.`.0Xu.O ",
"qXqXX = qXqXqXqXqXqXqXqXqXqXqXqXqXqXqXqXqXqXqXqXqXqXqXqXqXqXqXqXqXqXqXqXqX# S d r r r r : 5.|.].!.!.).!.).).!.R.`.8X5XqX",
"qXqX  + qXqXqXqXqXqXqXqXqXqXqXqXqXqXqXqXqXqXqXqXqXqXqXqXqXqXqXqXqXqXqXqXB.# ;.f y r r r g X 2.|.[.).).[.}._.}.G.`.,XqXqX",
"qXqX;   &XqXqXqXqXqXqXqXqXqXqXqXqXqXqXqXqXqXqXqXqXqXqXqXqXqXqXqXqXqXqXqX1 ;.-Xr.F k a a g 7 w  ...` ' ' ' _ _ U @.qXqXqX",
"qXqXj.  D qXqXqXqXqXqXqXqXqXqXqXqXqXqXqXqXqXqXqXqXqXqXqXqXqXqXqXqXqXn.% e u.x.:X=Xe.A d e ( G.5 %.4X%X%X%X&X2XqXqXqXqXqX",
"qXqXqX  @ c.qXqXqXqXqXqXqXqXqXqXqXqXqXqXqXqXqXqXqXqXqXqXqXqXqXh.m # # A <.x A e.=X>Xx.-.s ! D.5 qXqXqXqXqXqXqXqXqXqXqXqX",
"qXqXqXe . $ N.qXqXqXqXqXqXqXc.G n t n m m m H y.h.qXw.s.F s . # f O.O.C z a r f A t.>X;Xe.F >.L qXqXqXqXqXqXqXqXqXqXqXqX",
"qXqXqXqX  < ; n.qXg.M 1 t % 1 z A D D A z z f e e d g > a A $.O.S z h r 9 r i r a f ;.b.>X=Xz.( qXqXqXqXqXqXqXqXqXqXqXqX",
"qXqXqXqX2X  e # . # r z z V x z x z V x v v C C S V x x z z k h a 9 a r a a g r r a f A e.=X:Xa.qXqXqXqXqXqXqXqXqXqXqXqX",
"qXqXqXqXqXi.. k f r r 9 r e 9 9 9 r e r r r r r r t r 9 9 r r r r a a y a r r a r a a i d F :.b qXqXqXqXqXqXqXqXqXqXqXqX",
"qXqXqXqXqX$.7 e r r r a r r r a r r r r r r r r r r r r r r r r r r r r a r r r r r a a a h 0 , qXqXqXqXqXqXqXqXqXqXqXqX",
"qXqXqXqX&X. a r r r r r r r r a r r r r r r a r r r r r r r r r r r r r r r r r r r a r a h + 2 qXqXqXqXqXqXqXqXqXqXqXqX",
"qXqXqXqXi.> r r h r r r r r r r r r a r r r r r r r a r r r r r r r r a r a r r r r r r a h . N qXqXqXqXqXqXqXqXqXqXqXqX",
"qXqXqXqX6 8 r r r r r r a r r r a r r r r r r r r r r r r r a r a r r r r r r r r r a 8 ; a   q.qXqXqXqXqXqXqXqXqXqXqXqX",
"qXqXqXqX  r r r r r a r r r r r r r r r a r r r r a r a r r r r r r y r a r a r r r e r #.>.3 n.qXqXqXqXqXqXqXqXqXqXqXqX",
"qXqXqXh.  h r r a r a r r r r a r r r r r r r r a r r r r r r a r r r r r r a y r a 6 W.|.A.P &XqXqXqXqXqXqXqXqXqXqXqXqX",
"qXqXqXF . a r r r r r r r r r r r r r r r a r r r r a r r a 7 7 a r a r r r r r r e h }.Y.{ I qXqXqXqXqXqXqXqXqXqXqXqXqX",
"qXqXqX, > a a r r a r r r r r h h r r r r r r r r r r y a h 6 6 h r r r r r r r r 8 r U.X.[ K 3XqXqXqXqXqXqXqXqXqXqXqXqX",
"qXqXqX% e a r r r r r r r r r r 6 r a r a a r r a r r r a a e ; a a r r a r r r k - u V.X.S.5 qXqXqXqXqXqXqXqXqXqXqXqXqX",
"qXqXqX% d r r r a r r r r r h 6 : d r q a a g r a r r r r a k % < z a r r r y a r O } V.o.{ w qXqXqXqXqXqXqXqXqXqXqXqXqX",
"qXqXqX% a a r r r r r r r r a ; a k h h h a q r a r r r r r h 6 # k h r r a r h & w F.X.D.3 B.qXqXqXqXqXqXqXqXqXqXqXqXqX",
"qXqXqX- r r r r r r r a a h 1 o 1     . . $ r h d k h a r y y h . e k r r r r h   T F.G.P r qXqXqXqXqXqXqXqXqXqXqXqXqXqX",
"qXqXqX% r a r r r r r r a k X     H u.B 2 ,         & r h h h h - X l r r r h e O ..H.I + qXqXqXqXqXqXqXqXqXqXqXqXqXqXqX",
"qXqXqX% e r r r r a r r k ; .   Z qXqXqXqXqXqXqXh.G       . = h f X 7 h r r h o Q L.E m qXqXqXqXqXqXqXqXqXqXqXqXqXqXqXqX",
"qXqXqX- 7 h r r r r r d e . %   qXqXqXqXqXqXqXqXqXqXqXqXj.G %       % k r r k - q T   qXqXqXqXqXqXqXqXqXqXqXqXqXqXqXqXqX",
"qXqXqX% 9 y r r r r d r # 6   N.qXqXqXqXqXqXqXqXqXqXqXqXqXqXqXqXy.O   a a r h ; O < . qXqXqXqXqXqXqXqXqXqXqXqXqXqXqXqXqX",
"qXqXqXX y y r r y h d % ;   g.qXqXqXqXqXqXqXqXqXqXqXqXqXqXqXqXqXqXqX<.. k r h o < ^ . qXqXqXqXqXqXqXqXqXqXqXqXqXqXqXqXqX",
"qXqXM.  a a a r a a 6 :   s.qXqXqXqXqXqXqXqXqXqXqXqXqXqXqXqXqXqXqXqXqX  h r h * ; j   qXqXqXqXqXqXqXqXqXqXqXqXqXqXqXqXqX",
"qXqX% % a a r h a 8 #   s.qXqXqXqXqXqXqXqXqXqXqXqXqXqXqXqXqXqXqXqXqXqX  q y h o 6 q   qXqXqXqXqXqXqXqXqXqXqXqXqXqXqXqXqX",
"qXc.  r r t h r :     qXqXqXqXqXqXqXqXqXqXqXqXqXqXqXqXqXqXqXqXqXqXqXqX  q y y o 6 7 % qXqXqXqXqXqXqXqXqXqXqXqXqXqXqXqXqX",
"qXe # a r h r 6   d qXqXqXqXqXqXqXqXqXqXqXqXqXqXqXqXqXqXqXqXqXqXqXqXqX# 7 y t O r 0 2 qXqXqXqXqXqXqXqXqXqXqXqXqXqXqXqXqX",
"qX  r 9 h 9 9   %.qXqXqXqXqXqXqXqXqXqXqXqXqXqXqXqXqXqXqXqXqXqXqXqXqXqXn 0 y e o a $ n qXqXqXqXqXqXqXqXqXqXqXqXqXqXqXqXqX",
"n.  d a 9 6 % s qXqXqXqXqXqXqXqXqXqXqXqXqXqXqXqXqXqXqXqXqXqXqXqXqXqXqXH . j e + a + N qXqXqXqXqXqXqXqXqXqXqXqXqXqXqXqXqX",
"d.. a r 6 t   qXqXqXqXqXqXqXqXqXqXqXqXqXqXqXqXqXqXqXqXqXqXqXqXqXqXqXqXqX  l ; . h . H qXqXqXqXqXqXqXqXqXqXqXqXqXqXqXqXqX",
"H # a r 7 r ; qXqXqXqXqXqXqXqXqXqXqXqXqXqXqXqXqXqXqXqXqXqXqXqXqXqXqXqXqX$ d ; O k   q.qXqXqXqXqXqXqXqXqXqXqXqXqXqXqXqXqX",
"M # r 6 & % e qXqXqXqXqXqXqXqXqXqXqXqXqXqXqXqXqXqXqXqXqXqXqXqXqXqXqXqXqXL X h ~ % @ v.qXqXqXqXqXqXqXqXqXqXqXqXqXqXqXqXqX",
"M $ e x l ^ #.qXqXqXqXqXqXqXqXqXqXqXqXqXqXqXqXqXqXqXqXqXqXqXqXqXqXqXqXqXR ( W.5.! ] *XqXqXqXqXqXqXqXqXqXqXqXqXqXqXqXqXqX",
"#.X.T.~.6.'.T.qXqXqXqXqXqXqXqXqXqXqXqXqXqXqXqXqXqXqXqXqXqXqXqXqXqXqXqXqXR [. X#.`.^..XqXqXqXqXqXqXqXqXqXqXqXqXqXqXqXqXqX",
"#.L.|.}.2.U.Y.qXqXqXqXqXqXqXqXqXqXqXqXqXqXqXqXqXqXqXqXqXqXqXqXqXqXqXqXqX] /.[.&.=.(.8.qXqXqXqXqXqXqXqXqXqXqXqXqXqXqXqXqX",
"9.Z.).).!.3.7.A.k.qXqXqXqXqXqXqXqXqXqXqXqXqXqXqXqXqXqXqXqXqXqXqXqXqXqXqXW R.{.}.3.0.'.} qXqXqXqXqXqXqXqXqXqXqXqXqXqXqXqX",
"&XJ [._.).].=.| [ 0.qXqXqXqXqXqXqXqXqXqXqXqXqXqXqXqXqXqXqXqXqXqXqXqXqXqXI /._.R.[.#.7.L./ qXqXqXqXqXqXqXqXqXqXqXqXqXqXqX",
"qXK U ' _ { C.I L Y 4 qXqXqXqXqXqXqXqXqXqXqXqXqXqXqXqXqXqXqXqXqXqXqXqXc.L H.E.V.G.X.E H.P @.qXqXqXqXqXqXqXqXqXqXqXqXqXqX",
"qXqXl.k.l.#.1.1.p.k.$XqXqXqXqXqXqXqXqXqXqXqXqXqXqXqXqXqXqXqXqXqXqXqXqXqX4.&.5.&.4.#.@.&.4.qXqXqXqXqXqXqXqXqXqXqXqXqXqXqX"
};
