/* XPM */
static char *da8a8d5729cc4c6dba7a917bbd141809v1B6j7dHbi2hmTZI[] = {
/* columns rows colors chars-per-pixel */
"60 60 216 2 ",
"   c None",
".  c #010000",
"X  c #0B0301",
"o  c #0C0904",
"O  c #0D0C0A",
"+  c #0A090B",
"@  c #150200",
"#  c #180200",
"$  c #130C03",
"%  c #1B0D02",
"&  c #130E0A",
"*  c #1A0D0B",
"=  c #0E100D",
"-  c #1C1105",
";  c #14120C",
":  c #1C140C",
">  c #1E1A0F",
",  c #191406",
"<  c #141413",
"1  c #1C1611",
"2  c #1D1913",
"3  c #1A1C1C",
"4  c #2C0200",
"5  c #220000",
"6  c #370B00",
"7  c #22150C",
"8  c #29170B",
"9  c #241A0D",
"0  c #2B1B0E",
"q  c #201302",
"w  c #341D0C",
"e  c #361607",
"r  c #241B13",
"t  c #2D1F13",
"y  c #2D1E19",
"u  c #251A16",
"i  c #301F12",
"p  c #3A1910",
"a  c #2F200F",
"s  c #3E210A",
"d  c #38200B",
"f  c #2D2114",
"g  c #23211C",
"h  c #2E241A",
"j  c #2A2516",
"k  c #322315",
"l  c #3C2615",
"z  c #32251A",
"x  c #3A271A",
"c  c #342A1D",
"v  c #3A2C1C",
"b  c #3A2A15",
"n  c #3B311E",
"m  c #1F2022",
"M  c #242322",
"N  c #2A2626",
"B  c #2C2925",
"V  c #2C2D2C",
"C  c #23262A",
"Z  c #352C22",
"A  c #3A2D22",
"S  c #322A26",
"D  c #373122",
"F  c #3A3325",
"G  c #35332F",
"H  c #3C3228",
"J  c #2A3031",
"K  c #343232",
"L  c #3F3C36",
"P  c #3C3E3E",
"I  c #353839",
"U  c #560B00",
"Y  c #451500",
"T  c #471903",
"R  c #5E1500",
"E  c #561C01",
"W  c #661A01",
"Q  c #781E00",
"!  c #48240D",
"~  c #542100",
"^  c #52210B",
"/  c #5A2707",
"(  c #442613",
")  c #44291A",
"_  c #452715",
"`  c #5C2C12",
"'  c #583317",
"]  c #44341B",
"[  c #6E2E03",
"{  c #682905",
"}  c #772F03",
"|  c #66320C",
" . c #7A390C",
".. c #773207",
"X. c #622F12",
"o. c #643215",
"O. c #653A1C",
"+. c #6A3612",
"@. c #713414",
"#. c #7A3A13",
"$. c #773D18",
"%. c #443124",
"&. c #42392D",
"*. c #43362C",
"=. c #523422",
"-. c #5D3925",
";. c #573927",
":. c #453B32",
">. c #423F39",
",. c #6B3D23",
"<. c #653D29",
"1. c #753D28",
"2. c #744018",
"3. c #5E4028",
"4. c #45423F",
"5. c #4A4137",
"6. c #5B4432",
"7. c #5F433B",
"8. c #6C4124",
"9. c #6D432B",
"0. c #65422A",
"q. c #724228",
"w. c #7A462F",
"e. c #7E4C2E",
"r. c #704626",
"t. c #7E5029",
"y. c #644A3B",
"u. c #7A4833",
"i. c #373A41",
"p. c #433F40",
"a. c #4D4B4A",
"s. c #444344",
"d. c #514A46",
"f. c #584641",
"g. c #58534F",
"h. c #575348",
"j. c #40505F",
"k. c #565554",
"l. c #595553",
"z. c #5D5B5B",
"x. c #525558",
"c. c #654B41",
"v. c #735D47",
"b. c #6B5642",
"n. c #64635F",
"m. c #6B6158",
"M. c #796458",
"N. c #6A6762",
"B. c #6F6C6A",
"V. c #656263",
"C. c #77746E",
"Z. c #6A6B71",
"A. c #787573",
"S. c #843E14",
"D. c #903F12",
"F. c #8C3B08",
"G. c #834312",
"H. c #8B4514",
"J. c #8E4914",
"K. c #8B4319",
"L. c #944917",
"P. c #994C1A",
"I. c #97470F",
"U. c #A14911",
"Y. c #A4521D",
"T. c #B25519",
"R. c #824723",
"E. c #844A26",
"W. c #874C29",
"Q. c #964D22",
"!. c #994C21",
"~. c #8A5229",
"^. c #9D562C",
"/. c #9D5326",
"(. c #814D31",
"). c #8B5833",
"_. c #9D5C32",
"`. c #945B38",
"'. c #A45122",
"]. c #A45729",
"[. c #B35D2B",
"{. c #A35D33",
"}. c #A25D3B",
"|. c #9A6339",
" X c #9C6131",
".X c #B4652F",
"XX c #A66135",
"oX c #AB6434",
"OX c #A56339",
"+X c #AB6339",
"@X c #BA6B3D",
"#X c #B46539",
"$X c #886A56",
"%X c #956E54",
"&X c #8B715E",
"*X c #987257",
"=X c #B56C42",
"-X c #BB6F43",
";X c #B87141",
":X c #8D7362",
">X c #85756A",
",X c #837A77",
"<X c #887874",
"1X c #9C7A66",
"2X c #89827B",
"3X c #AD896E",
"4X c #B18C75",
"5X c #888581",
"6X c #918C8C",
"7X c #9C918A",
"8X c #959593",
"9X c #C19F85",
"0X c #C1A289",
"qX c #C3B7AC",
"wX c #BEC2C0",
"eX c #D6CCC1",
/* pixels */
"                                                                                        ,X                              ",
"                                                                                        .       B                       ",
"                                                                                      N # :X    .                       ",
"                                                                                      . W *X  P # :X                    ",
"                                                                                      . L.3X  * W %X                    ",
"                                                                                    < 6 U.0X  X D.%X                    ",
"                                                                                    . | Y.4Xj.# T.%X                    ",
"                                                                                    . $.@Xq.+ u / y.                    ",
"                                                                                  J X R.@XX.9 F m < a.                  ",
"                                                                                4.. , E.oXo.> j Z H @ +                 ",
"          m ;                                                                   . N @ $.G.p r f t h Z g .               ",
"        + =                                                                   M 9 c % 8 w r k k k f 2 k t u             ",
"      >..                                                                     X Z 0 k r r k z f 9 l ).K.%..             ",
"      . h.                                                                  C.$ v 0 t j f t : > , _ t.6.%.* x.          ",
"    B..                                                                     B k 0 t t t j 9 <.e.;.r ^ ) : > o z.        ",
"    B .                                                                     . *.0 t t t 9 8.@X@X=X3.! ` b ] 0 %.5XA.    ",
"    o $                                                                   a.: A 0 t t 7 _ oXXX_.{.XX~.).{.+X}.Q.0XwX. < ",
"    X ,                                                                   S c k t t t u x XXXX_._.{.}.XX{.{.{.'.|.eXs.O ",
"    o -                                                                   $ F f 0 t t t : q.@XXX_.{._._._._.^.^. XqX8X  ",
"    . @                                                                 B.o F j i t t t j & O.#XoX{.{.+XXX+X+XL.|.2X    ",
"    : . ,X                                                              2 A c 8 i t t t j 7 p o.@.{ } } ..[ [ W =.      ",
"    x.. H                                                           V.; u >.h 0 i t t t r ' L.6 >.7X>X>X>X<X5X          ",
"      . # m.                                                  z.B $ $ Z 5.Z t t i i t t u _ J.6                         ",
"      u X - C.              n.K M u M N N N K a.z.  s.l.K u o $ h &.&.F z t t t t t t t u k G.Y                         ",
"        . : : N.  l.B 2 u $ 2 c D F H D c v h r 9 h j , j D :.*.F c k t 0 t t t t t t f 0 9 +./                         ",
"        5X. r $ o & t c Z Z v v c Z Z c n n F A F Z v c c z z f a 0 j t j a j t f t t i t j s e                         ",
"          d.X z z t 9 t 0 t 0 r 0 t t t r 0 t t t t t t r t t t t f f i t t t t t t t t f k % &                         ",
"          &.7 t t t f t f t t t t t t f f f t t t t t t t t t t t t t t t t t t t t t t t k % <                         ",
"        ,XX f f k t t t t t t f t t t t t t t f t t t f t t t t t t t t t t t t t t t t f k @ 3                         ",
"        d.- t t f t t t f t t t t t f t f t t t f t t t t t f t t t f t t t t t t f t t f k X V                         ",
"        7 9 t t t t f t t t t t f t t t t t f t t t i t f t t t f t t t t t t t t t k t ; f . i.                        ",
"        . t t t i t t t t t t t t t t t i t t t t t t t t t t t t t t f t t t t t t t u <.2.4 V.                        ",
"      z.. k t t f t t t t t f t t t f t t t i t f t t t t t t t t t t t t t f t t f 7 (.@XG.R <X                        ",
"      G X f t t t t f t t t t t t t t t f t t t t t f t t k 9 0 t t t t t t t t f 9 i +XQ.@.E                           ",
"      1 , f t t t f t t t t t k f t t f t t t t t f t t f k 7 7 k t t t f t t t t 9 k W.#. .Y 6X                        ",
"      O r f f t t t t t t t t t 7 t f i f t f t t t t t f f r : f f t t t t i t k ; w S.#.H.6                           ",
"      & j t t t t t f t t f k 7 : h i w t j a t f t t t t f z & 7 c f t t f t f t + X.S.#...e                           ",
"      & h f t t t t t t t t f : j z k k k f a f f t t t t t k 7 o z k t t t t k & e K.#.L.4 Z.                          ",
"      ; t t t t t f t t f k 2 O 2 . . X X % 0 f z z f t t i t k o u k t t t f k X ! K.J.R y                             ",
"      & t i t t t t t t f z o . . I s.C m < . . . . * k k k k k ; o x t t t k u + @.P.E @                               ",
"      & r t t t t t t t z : o . G               z.V . . . X - k j o 0 k t t k O ( Y.^ B                                 ",
"      ; 8 z t t f t t z u . & .                         x.J & . . . & z t t z : w ! .                                   ",
"      & 8 k i t t t z t $ : . ,X                                a.+ . f f t k ; + 2 X                                   ",
"      o i i t t t i h & : . g.                                      s.X k t k = * ) .                                   ",
"    C.. t t t t f f 9 : . g.                                          . k i k O 7 k .                                   ",
"    & & j t t f j > $ . g.                                            . w k k O 7 w .                                   ",
"  n.. t t t f t 7 X .                                                 . 8 i t O 8 8 &                                   ",
"  r $ f t z t 7 . h                                                   $ 8 i y + t q 3                                   ",
"  . t 0 k 0 9 . >.                                                    g % i u O h % g                                   ",
"N.. h k 0 7 % g                                                       P X l 7 $ k @ V                                   ",
"h.. f t 7 u .                                                           . x 7 X k X I                                   ",
"L $ f t 8 y :                                                           % h : + k . i.                                  ",
"B $ f 7 * & u                                                           T o k ) & @ M.                                  ",
"Z % 7 v x ( -.                                                          ~ ' (.q.( | 1X                                  ",
";.#.~.`.e..X(.                                                          E oX#X-._.].$X                                  ",
";.Y.-XoX8.E.!.                                                          / ].oX8.1.[.t.                                  ",
"y...+X{._.<.w.G.M.                                                      / ^.XX+X9.u.[.'                                 ",
"<XU oX+X{.XX1.O...e.                                                    E ^.}.^.oX-.w.Y.`                               ",
"  Y W } { ..F.E T Q 5                                                 m.E P./.S.J.$.^ P.W =.                            ",
"    c.v.b.;.6.y.f.v.:X                                                  0.,.9.8.<.-.=.8.0.                              "
};
