/* XPM */
static char *result[] = {
/* columns rows colors chars-per-pixel */
"60 60 39 1 ",
"  c #202C38",
". c #4C555F",
"X c #666E76",
"o c #468E70",
"O c #478F71",
"+ c #488F72",
"@ c #499072",
"# c #4A9073",
"$ c #509478",
"% c #599A7F",
"& c #777F86",
"* c #5B9B80",
"= c #5E9D83",
"- c #609E84",
"; c #629F86",
": c #70A891",
"> c #74AA94",
", c #77AC96",
"< c #7FB19C",
"1 c #91BCAA",
"2 c #ACB0B5",
"3 c #97C0AF",
"4 c #9FC4B4",
"5 c #A4C7B8",
"6 c #ACCCBF",
"7 c #AECEC1",
"8 c #B1D0C3",
"9 c #B4D1C5",
"0 c #BED8CD",
"q c #CEE1D9",
"w c #D0E2DB",
"e c #D2E4DC",
"r c #E0ECE7",
"t c #E3EEEA",
"y c #F0F6F4",
"u c #F4F8F7",
"i c #FCFDFD",
"p c #FEFFFE",
"a c white",
/* pixels */
"                                                            ",
"                                                            ",
"                                                            ",
"                                                            ",
"                                                            ",
"                                                            ",
"            .2222222222222222222222222222222222&            ",
"            Xaaaaaaaaaaaaaaaaaaaaaaaaaaaaaaaaaa2            ",
"            Xaaaaaaaaaaaaaaaaaaaaaaaaaaaaaaaaaa2            ",
"            Xae3333333333333333333333333333338a2            ",
"            Xa7oooooooooooooooooooooooooooooo>a2            ",
"            Xa7oooooooooooooooooooooooooooooo>a2            ",
"            Xa7oooooooooooooooooooooooooooooo>a2            ",
"            Xa7oooooooooooooooooooooooooooooo>a2            ",
"            Xa7oooooooooooooooooooooooooooooo>a2            ",
"            Xa7oooooooooooooooooooooooooooooo>a2            ",
"            Xa7oooooooooooooooooooooooooooooo>a2            ",
"            Xa7oooooooooooooooooooooooooooooo>a2            ",
"            Xa7oooooooooooooooooooooooooooooo>a2            ",
"            Xa7oooooooooooooooooooooooooooooo>a2            ",
"            Xa7oooooooooooooooooooooooooooooo>a2            ",
"            Xa7oooooooooooooooooooooooooooooo>a2            ",
"            Xa7oooooooooooooooooooooooooooooo>a2            ",
"            Xa7oooooooooooooooooooooooooooooo>a2            ",
"            Xa7oooooooooooooooooooooooooooooo>a2            ",
"            Xa7oooooooooooooooooooooooooooooo>a2            ",
"            Xa7oooooooooooooooooooooooooooooo>a2            ",
"            Xa7oooooooooooooooooooooooooooooo>a2            ",
"            Xa7oooooooooooooooooooooooooooooo>a2            ",
"            Xa7oooooooooooooooooooooooooooooo>a2            ",
"            Xa7oooooooooooooooooooooooooooooo>a2            ",
"            Xa7oooooooooooooooooooooooooooooo>a2            ",
"            Xa7oooooooooooooooooooooooooooooo>a2            ",
"            Xa7oooooooooooooooooooooO:<=ooooo>a2            ",
"            Xa7oooooooooooooooooooo-raaa9+ooo>a2            ",
"            Xa7ooooooooooooooooooo#taaaaa5ooo>a2            ",
"            Xa7ooooooooooooooooooo<aaaaaau@oo>a2            ",
"            Xa7ooooooooooooooooooo4aaaaaaa*oo>a2            ",
"            Xa7ooooooooooooooooooo1aaaaaap$oo>a2            ",
"            Xa7ooooooooooooooooooo*iaaaaawooo>a2            ",
"            Xa7oooooooooooooooooooo3aaaay;ooo>a2            ",
"            Xa7ooooooooooooooooooooo,0q6%oooo>a2            ",
"            Xa7oooooooooooooooooooooooooooooo>a2            ",
"            Xa7oooooooooooooooooooooooooooooo>a2            ",
"            Xa7oooooooooooooooooooooooooooooo>a2            ",
"            Xa7oooooooooooooooooooooooooooooo>a2            ",
"            Xa7oooooooooooooooooooooooooooooo>a2            ",
"            Xa7oooooooooooooooooooooooooooooo>a2            ",
"            Xa7oooooooooooooooooooooooooooooo>a2            ",
"            Xa7oooooooooooooooooooooooooooooo>a2            ",
"            Xa7oooooooooooooooooooooooooooooo>a2            ",
"            Xa7oooooooooooooooooooooooooooooo>a2            ",
"            Xa7oooooooooooooooooooooooooooooo>a2            ",
"            Xa7oooooooooooooooooooooooooooooo>a2            ",
"            Xa7oooooooooooooooooooooooooooooo>a2            ",
"            Xa7oooooooooooooooooooooooooooooo>a2            ",
"            Xa7oooooooooooooooooooooooooooooo>a2            ",
"            Xa7oooooooooooooooooooooooooooooo>a2            ",
"            Xa7oooooooooooooooooooooooooooooo>a2            ",
"            Xa7oooooooooooooooooooooooooooooo>a2            "
};
