/* XPM */
static char *result[] = {
/* columns rows colors chars-per-pixel */
"60 60 166 2 ",
"   c #090706",
".  c #0B0905",
"X  c #070809",
"o  c #0D0B0B",
"O  c #130F07",
"+  c #130D0B",
"@  c #180D09",
"#  c #15110C",
"$  c #1B130C",
"%  c #0C0E11",
"&  c #110E11",
"*  c #0E1419",
"=  c #151515",
"-  c #1C1511",
";  c #1E1A15",
":  c #14171C",
">  c #16191E",
",  c #1C1B1C",
"<  c #2C1207",
"1  c #22160D",
"2  c #24190E",
"3  c #2B1B0D",
"4  c #3B1B0B",
"5  c #201715",
"6  c #241B12",
"7  c #2D1F13",
"8  c #221D1B",
"9  c #311D13",
"0  c #37200F",
"q  c #2D2114",
"w  c #26201D",
"e  c #2B231B",
"r  c #2F281C",
"t  c #312215",
"y  c #3B2312",
"u  c #3D2815",
"i  c #322519",
"p  c #3C231C",
"a  c #322A1C",
"s  c #3F2D18",
"d  c #161C23",
"f  c #1A1D23",
"g  c #221E21",
"h  c #1C2125",
"j  c #1D252C",
"k  c #1D2731",
"l  c #1E2933",
"z  c #242424",
"x  c #2A2621",
"c  c #2D2A21",
"v  c #21252B",
"b  c #252A2E",
"n  c #2B2B2D",
"m  c #332524",
"M  c #342C23",
"N  c #3A2C24",
"B  c #362D29",
"V  c #3C2F2D",
"C  c #333021",
"Z  c #3B3226",
"A  c #343A2B",
"S  c #222B35",
"D  c #292D33",
"F  c #202C38",
"G  c #342D31",
"H  c #263036",
"J  c #2D3137",
"K  c #26313B",
"L  c #2B323A",
"P  c #353235",
"I  c #3D3432",
"U  c #333538",
"Y  c #3E3838",
"T  c #47250C",
"R  c #4D220E",
"E  c #53250F",
"W  c #57280E",
"Q  c #442416",
"!  c #4B2412",
"~  c #4C2A16",
"^  c #41211A",
"/  c #4E2618",
"(  c #442B19",
")  c #552B13",
"_  c #5B2B13",
"`  c #532619",
"'  c #502D19",
"]  c #4C341F",
"[  c #5D3012",
"{  c #51321E",
"}  c #61290F",
"|  c #622D14",
" . c #682E16",
".. c #643119",
"X. c #69371C",
"o. c #663A1E",
"O. c #6B3C1B",
"+. c #733613",
"@. c #743A14",
"#. c #7C3C14",
"$. c #70371A",
"%. c #763D1C",
"&. c #4A3224",
"*. c #45352E",
"=. c #543520",
"-. c #5D3B26",
";. c #5B3D2B",
":. c #483831",
">. c #433D3C",
",. c #483D38",
"<. c #633C22",
"1. c #6C3E25",
"2. c #2C453A",
"3. c #364230",
"4. c #364A38",
"5. c #754017",
"6. c #51443F",
"7. c #42513C",
"8. c #5C5332",
"9. c #6E4221",
"0. c #734424",
"q. c #7C4526",
"w. c #73432B",
"e. c #7C4A2B",
"r. c #714C35",
"t. c #2E3740",
"y. c #343D46",
"u. c #3D3E44",
"i. c #3B4149",
"p. c #3D634C",
"a. c #3F6D54",
"s. c #45474A",
"d. c #4C4F54",
"f. c #47795D",
"g. c #6E6156",
"h. c #427D62",
"j. c #6A6C6E",
"k. c #813E16",
"l. c #874317",
"z. c #84421D",
"x. c #8A471B",
"c. c #8A4922",
"v. c #82472B",
"b. c #844B29",
"n. c #8B4F2D",
"m. c #8A542C",
"M. c #9A5427",
"N. c #95522B",
"B. c #9D5B2E",
"V. c #8C5432",
"C. c #8B5539",
"Z. c #925930",
"A. c #9D5C32",
"S. c #A1562B",
"D. c #A25E34",
"F. c #9E6037",
"G. c #A46136",
"H. c #AA6236",
"J. c #A4633A",
"K. c #AA6339",
"L. c #876957",
"P. c #438064",
"I. c #448769",
"U. c #838280",
"Y. c #AE9682",
"T. c #B8A797",
/* pixels */
"F F F F F F F l F F F F F F F F F F F F F F F F F F F F F F F F F F F F F F F F F F F F F F F F F F F F F F F F F F F F ",
"F F F F F F F F F F F F F F F F F F F F F F F F F F F F F F F F F F F F F F F l F F F F F F F F F F F F F F l F F F F F ",
"F F F F F F F F F F F F F F F F F F F F F F F F F F F F F F F F F F F F F F F F F F F F F F F F F F F F F F F F F F F F ",
"F F F F F F F F F F F F F F F F F F F F F F F F F F F F F F F F F F F F F F F F F F F F F F F F F F F F F F F F F F F F ",
"F F F F F F F F F F F F F F F F F F F F F F F F F F F F F F F F F F F F F F F F F F k k F F F F F F F F F F F F F F F F ",
"F F F F F F F F F F F F F F F F F F F F F F F F F F F F F F F F F F F F F F F F F l g B L F f L F F F F F F F F F F F F ",
"l F F F F F F F F F F F F F F F F F F F F F F F F F F F F F F F F F F F F F F F F j 9 ;.y.S 9 >.F l F F F F F F F F F F ",
"F F F F F F F F F F F F F F F F F F F F F F F F F F F F F F l F F F F F F F F F F v ! r.s.g ` ,.F F F F F F F F F F F F ",
"F F F F F F F F F F F F F F F F F F F F F F F F F F F F F F F F F F F F F F F F l 8 $.r.d.f %.6.F F F F F F F F F F F F ",
"F F F F F F F F F F F F F F F F F F F F F F F F F F F F F F F F F F F F F F F F l 7 c.C.V 5 _ ,.F F F F F F F F F F F F ",
"F F F F F F K l F F F F F F F F F F F F F F F F F F F F F F F F F F F F F F F F k 7 N.m.y e c z t.t.F F F F F F F F F F ",
"F F F F F F l l F F F F F F F F F F F F F F F F F F F F F F F F F F F F F F F S % 4 M.c.0 q a B % f F F F F F F F F F F ",
"F F F F F F l l l F F F F F F F F F F F F F F F F F F F F F F F F F F F F F F = z < @.) 7 q 7 7 g g f F F F F F F F F F ",
"F F F F F l k j l F F F F F F F F F F F F F F F F F F F F F F F F F F F F l j e 9 1 3 7 q q q t i ( w j F F F F F F F F ",
"F F F F F F l l F F F F F F F F F F F F F F F F F F F F F F F F F F F F F K = a 7 q 7 7 q q 2 u m.0.m f F F F F F F F F ",
"F F F F F l j K F F F F F F F F F F F F F F F F F F F F F F F F F F F F F K ; i 3 7 7 7 t s q y X.&.q , H S F F F F F F ",
"F F F F l b f F F F F F F F F F F F F F F F F F F F F F F F F F F F F F F h M 7 7 7 6 u 0.B.V.] R ~ q 7 x i.y.F F F F F ",
"F F F F l f f F F F F F F F F F F F F F F F F F F F F F F F F F F F F F H , N 3 7 7 7 <.G.H.J.V.9.0.e.q.w.L.U.D l F F F ",
"F F F F l d j F F F F F F F F F F F F F F F F F F F F F F F F F F F F F H w a 7 7 6 7 0.J.D.B.D.A.F.D.D.S.J.T.d.k F F F ",
"F F F F k = f F F F F F F F F F F F F F F F F F F F F F F F F F F F F F h C q q 7 7 6 { F.J.A.D.D.D.D.D.B.B.Y.j.F F F F ",
"F l F F k = d F F F F F F F F F F F F F F F F F F F F F F F F F F F F K , A a q 9 q 6 - ' D.H.D.D.G.G.G.B.n.g.y.F F F F ",
"F F F F S d d L F F F F F F F F F F F F F F F F F F F F F F F F F F l j J h.h.3.a q q 7 0 W ..) [ [ _ ) / G D F F F F F ",
"F F F F F b > S F F F F F F F F F F F F F F F F F F l F F l F F F H n e 3.d.I.P.p.A q u 5.R P i.t.t.y.t.F F F F F F F F ",
"F F F F F j = g L F F F F F F F F F l F F F F F F F l t.F l k l z w e A C C 4.a.P.f.2.C O.R J S F F F l F F F F F F F F ",
"F F F F F F d = z L K K S S b j S b D D D D b b l S b b n c z e C Z a t q q q C 4.P.P.a.8.&.S F F F F F F F F F F F F F ",
"F F F F F F b f ; z v v x r x w r M M Z M C C M c c a e r a Z a t t t q q q 7 q C 3.p.a.f.7.D F F F F F F F F F F F F F ",
"F F F F F F F S , 6 6 6 6 q q q q t q e e t t t i e i t q q q q 7 7 7 q q q q 7 q e C 4.p.2.F F F F F F F F F F F F F F ",
"F F F F F F F L w 6 q 7 7 7 7 7 7 q 3 7 7 q 7 7 q 7 7 7 7 7 7 7 7 7 7 7 q 3 q 7 q q q i q z S F F F F F F F F F F F F F ",
"F F F F F F F f 6 q 7 7 7 7 q 7 7 q 7 7 7 q 7 7 7 7 7 q 7 7 7 7 7 7 7 7 7 7 7 q 7 q 7 q 1 f S F F F F F F F F F F F F F ",
"F F F F F F K z 2 7 q 7 7 t 3 7 7 7 7 7 7 7 7 7 7 7 7 7 7 7 7 q 7 q 7 q q 7 7 7 7 7 7 q @ z S F F F F F F F F F F F F F ",
"F F F F F F S 8 7 7 q 7 q 7 7 7 7 7 7 7 7 7 q 9 q 7 7 7 7 7 7 7 7 7 q 7 7 7 7 7 q q 2 7 @ v K F F F l F F F F F F F F F ",
"F F F F F F f 5 7 7 7 7 7 7 7 q 7 7 7 q q 7 7 7 7 7 7 q 9 q 7 7 7 7 7 7 7 7 7 7 q q =.5.! D K F F F F F F F F F F F F F ",
"F F F F l K j - q q q 7 7 7 7 q 7 q 7 7 7 q q 7 7 q 7 7 7 q 7 7 7 7 7 7 7 7 q 7 7 ( Z.M.} B S F F F F F F F F F F F F F ",
"F F F F S S , - q 7 7 7 7 7 q 3 7 q 7 7 7 7 q 3 7 7 7 7 q q 2 2 7 7 7 7 q 9 7 7 2 { M.k.W n F F F F F F F F F F F F F F ",
"F F F F F l , 6 q 7 7 7 7 7 q 7 7 3 q q 7 q 7 q 7 7 7 q 7 q 2 1 t q 9 7 7 7 7 7 $ ' l.#.E n F F F F F F F F F F F F F F ",
"F F F F F j , e q 7 7 7 7 7 7 t 7 2 6 q 9 q q 7 q 7 7 7 7 7 q $ 7 t 7 7 7 7 7 7 $ | #.@.~ S F F F F F F F F F F F F F F ",
"F F F F F k 8 7 7 7 7 7 7 7 q t 6 2 e t t 7 7 7 q q q 7 7 7 q $ $ i q q q 7 t $ 4 k.k.| m F F F F F F F F F F F F F F F ",
"F F F F F k 8 7 7 q 7 7 7 7 7 7 # - # + + @ 1 7 q q q 7 q 7 7 3 + 7 t 3 7 7 p . E k.+.^ S l F F F F F F F F F F F F F F ",
"F F F F F k , 7 9 q 7 7 7 7 t 2   X v S b j d * % o # 3 t i 9 q O $ t q 7 t 6 + @.k.^ v F F F F F F F F F F F F F F F F ",
"F F F F F b , 7 q 7 q 7 7 q 7 +   f S F l S F F K K h * % o 5 q ; O 7 t q t + T l.p F F F F F F F F F F F F F F F F F F ",
"F F F F F j ; 7 q 7 7 7 q e $ + : k l F F F F F F F F F t.F d * % X 6 q 9 t @ 3 9 : F F F F F F F F F F F l F F F F F l ",
"F F F F F j ; 7 9 7 q 7 q $ # = l F l F F F F F F F F F l F F F l d ; 7 9 t - + 6 > F F F F F F F F F F l t.F F F F F F ",
"F F F F F S - q t 7 7 q 6 $ = j F F F F F F F F F F F F F F F F l F f 6 t t + - 9 : F F F F F F F F F F l F F F F F F F ",
"F F F l S h $ q 7 7 q 7 $ = b S F F F F F F F F F F F F F F F F F F d 6 t q + 1 7 : F F F F F F F F F F F F F F F F F F ",
"F F F F S = q q q 7 7 # = k K l F F F F F F F F F F F F F F F F F F j 5 9 9 + 2 7 d F F F F F F F F F F F F F F F F F F ",
"F F F F h # 7 q 7 2 = h k l K l F F F F F F F F F F F F F F F F F F j 6 7 7 o 2 1 j F F F F F F F F F F l F F F F F F F ",
"F F F l = q t q 3 + l l F F l K F F F F F F F F F F F F F F F F F F k - 2 7 + 7 $ b F F F F F F F F F F F F F F F F F F ",
"F F F K & t 3 2 1 f l F F F l l F F F F F F F F F F F F F F F F F F S > 7 7 o 7 + S F F F F F F F F F F F F F F F F F F ",
"F F F J + q 7 2 = b F F F F F F F F F F F F F F F F F F F F F F F F F d 7 5 . 7 & F F F F F F F F F F F F F F F F F F F ",
"F F S D $ 7 2 6 8 b F F F F F F F F F F F F F F F F F F F F l F F F l z 6 6 + 7 & t.F F F F F F F F F F F F F F F F F F ",
"F F F b @ 7 2 2 8 S F F F F F F F F F F F F F F F F F F F F F F F F F m 3 ~ { 1 9 u.F F F F F F F F F F F F F F F F F F ",
"F F F D Q { -.<.;.G F F F F F F F F F F F F F F F F F F F F F F F F F N o.V.1.O.%.u.F F F F F F F F F F F F F F F F F F ",
"F F F I c.D.V.b.v.>.F F F F F F F l F F F F F F F F F F F F F F F F l N b.H.1.n.N.>.F F F F F F F F F F F F F F F F F F ",
"F F F *.z.K.A.b.w.;.U F F F F F F F F F F F F F F F F F F F F F F F F N v.G.Z.w.C.1.D F F F F F F F F F F F F F F F F F ",
"F F F J _ G.F.B.v.<.=.Y F F F F F F F F F F F F F F F F F F F F F F l B q.A.D.Z.1.e.<.D F F F F F F F F F F F F F F F F ",
"F F F D m  .+.+.@._ ! ` v F F F F F F F F F F F F F F F F F F F F F l m %.N.z.x.1. .X.m F F F F F F F F F F F F F F F F ",
"F F F F F P Y P P P G U F F F F F F F F F F F F l l F F F F F F F F F L U :.*.*.I V I D F F F F F F F F F F F F F F F F ",
"F F F F F l F F F F F F F F F F F F F F F F F F t.l F F F F F F F F l l F F F F F F F F F F F F F F F F F F F F F F F F ",
"F F F F F F F F F F F F F F F F F F F F F F F F F F F F F F F F F F t.l F F F F F F F F F F F F F F F F F F F F F F F F ",
"F F F F F F F F F F F F F F F F F F F F F F F F F F F F F F F F F F F l F F F F F F F F F F F F F F F F F F F F F F F F "
};
